<svg version="1.1" xmlns="http://www.w3.org/2000/svg" xmlns:xlink="http://www.w3.org/1999/xlink" width="1000" height="300"><defs><clipPath id="hePWfynbOkoc"><path fill="none" stroke="none" d="M 56.5 28.5 L 970.5 28.5 L 970.5 254.5 L 56.5 254.5 L 56.5 28.5"/></clipPath><clipPath id="BQogAvvqIOHu"><path fill="none" stroke="none" d="M 56.5 28.5 L 970.5 28.5 L 970.5 254.5 L 56.5 254.5 L 56.5 28.5"/></clipPath><clipPath id="NLJfyKAwAitQ"><path fill="none" stroke="none" d="M 56.5 28.5 L 970.5 28.5 L 970.5 254.5 L 56.5 254.5 L 56.5 28.5"/></clipPath><clipPath id="LElonwvkCAav"><path fill="none" stroke="none" d="M 56.5 28.5 L 970.5 28.5 L 970.5 254.5 L 56.5 254.5 L 56.5 28.5"/></clipPath><clipPath id="cVrpBZqMFrOz"><path fill="none" stroke="none" d="M 56.5 28.5 L 970.5 28.5 L 970.5 254.5 L 56.5 254.5 L 56.5 28.5"/></clipPath><clipPath id="GqdJWmBbyzPT"><path fill="none" stroke="none" d="M 56.5 28.5 L 970.5 28.5 L 970.5 254.5 L 56.5 254.5 L 56.5 28.5"/></clipPath><clipPath id="otWCCsToeJTO"><path fill="none" stroke="none" d="M 56.5 28.5 L 970.5 28.5 L 970.5 254.5 L 56.5 254.5 L 56.5 28.5"/></clipPath><clipPath id="tDQuwXGyghyk"><path fill="none" stroke="none" d="M 56.5 28.5 L 970.5 28.5 L 970.5 254.5 L 56.5 254.5 L 56.5 28.5"/></clipPath><clipPath id="mivulQEeIWgz"><path fill="none" stroke="none" d="M 56.5 28.5 L 970.5 28.5 L 970.5 254.5 L 56.5 254.5 L 56.5 28.5"/></clipPath><clipPath id="oxntROfHGfJg"><path fill="none" stroke="none" d="M 56.5 28.5 L 970.5 28.5 L 970.5 254.5 L 56.5 254.5 L 56.5 28.5"/></clipPath><clipPath id="TIxRapZPLPCL"><path fill="none" stroke="none" d="M 56.5 28.5 L 970.5 28.5 L 970.5 254.5 L 56.5 254.5 L 56.5 28.5"/></clipPath></defs><path fill="rgb(255,255,255)" stroke="none" paint-order="stroke" d="M 0.5 0.5 L 1000.5 0.5 L 1000.5 300.5 L 0.5 300.5 L 0.5 0.5" fill-opacity="1"/><rect fill="#FFFFFF" stroke="none" x="56" y="28" width="914" height="226" transform="matrix(1, 0, 0, 1, 0.5, 0.5)"/><path fill="rgb(255,255,255)" stroke="none" paint-order="stroke" d="M 56.5 28.5 L 970.5 28.5 L 970.5 254.5 L 56.5 254.5 L 56.5 28.5" fill-opacity="1"/><path fill="none" stroke="rgb(229,229,229)" paint-order="fill" d="M 56.5 28.5 L 970.5 28.5 L 970.5 254.5 L 56.5 254.5 L 56.5 28.5" stroke-opacity="1" stroke-linejoin="bevel" stroke-miterlimit="10" stroke-dasharray=""/><path fill="none" stroke="rgb(0,0,0)" paint-order="fill" d="M 88.01724243164062 157.18890380859375 L 88.01724243164062 148.88192749023438" stroke-opacity="1" stroke-linejoin="bevel" stroke-miterlimit="10" stroke-dasharray="" clip-path="url(#NLJfyKAwAitQ)"/><path fill="none" stroke="rgb(0,0,0)" paint-order="fill" d="M 119.53448486328125 134.32546997070312 L 119.53448486328125 127.17679595947266" stroke-opacity="1" stroke-linejoin="bevel" stroke-miterlimit="10" stroke-dasharray="" clip-path="url(#NLJfyKAwAitQ)"/><path fill="none" stroke="rgb(0,0,0)" paint-order="fill" d="M 151.05172729492188 136.0157470703125 L 151.05172729492188 129.45750427246094" stroke-opacity="1" stroke-linejoin="bevel" stroke-miterlimit="10" stroke-dasharray="" clip-path="url(#NLJfyKAwAitQ)"/><path fill="none" stroke="rgb(0,0,0)" paint-order="fill" d="M 182.5689697265625 126.04796600341797 L 182.5689697265625 118.089599609375" stroke-opacity="1" stroke-linejoin="bevel" stroke-miterlimit="10" stroke-dasharray="" clip-path="url(#NLJfyKAwAitQ)"/><path fill="none" stroke="rgb(0,0,0)" paint-order="fill" d="M 214.08621215820312 124.64927673339844 L 214.08621215820312 116.95304107666016" stroke-opacity="1" stroke-linejoin="bevel" stroke-miterlimit="10" stroke-dasharray="" clip-path="url(#NLJfyKAwAitQ)"/><path fill="none" stroke="rgb(0,0,0)" paint-order="fill" d="M 245.60345458984375 124.09278106689453 L 245.60345458984375 116.47660827636719" stroke-opacity="1" stroke-linejoin="bevel" stroke-miterlimit="10" stroke-dasharray="" clip-path="url(#NLJfyKAwAitQ)"/><path fill="none" stroke="rgb(0,0,0)" paint-order="fill" d="M 277.1206970214844 127.8150634765625 L 277.1206970214844 120.45782470703125" stroke-opacity="1" stroke-linejoin="bevel" stroke-miterlimit="10" stroke-dasharray="" clip-path="url(#NLJfyKAwAitQ)"/><path fill="none" stroke="rgb(0,0,0)" paint-order="fill" d="M 308.637939453125 121.13896179199219 L 308.637939453125 112.89437103271484" stroke-opacity="1" stroke-linejoin="bevel" stroke-miterlimit="10" stroke-dasharray="" clip-path="url(#NLJfyKAwAitQ)"/><path fill="none" stroke="rgb(0,0,0)" paint-order="fill" d="M 340.1551818847656 125.55101013183594 L 340.1551818847656 117.09751892089844" stroke-opacity="1" stroke-linejoin="bevel" stroke-miterlimit="10" stroke-dasharray="" clip-path="url(#NLJfyKAwAitQ)"/><path fill="none" stroke="rgb(0,0,0)" paint-order="fill" d="M 371.67242431640625 123.17971801757812 L 371.67242431640625 115.1123275756836" stroke-opacity="1" stroke-linejoin="bevel" stroke-miterlimit="10" stroke-dasharray="" clip-path="url(#NLJfyKAwAitQ)"/><path fill="none" stroke="rgb(0,0,0)" paint-order="fill" d="M 403.1896667480469 120.18688201904297 L 403.1896667480469 112.04434967041016" stroke-opacity="1" stroke-linejoin="bevel" stroke-miterlimit="10" stroke-dasharray="" clip-path="url(#NLJfyKAwAitQ)"/><path fill="none" stroke="rgb(0,0,0)" paint-order="fill" d="M 434.7069091796875 125.85012817382812 L 434.7069091796875 116.8703384399414" stroke-opacity="1" stroke-linejoin="bevel" stroke-miterlimit="10" stroke-dasharray="" clip-path="url(#NLJfyKAwAitQ)"/><path fill="none" stroke="rgb(0,0,0)" paint-order="fill" d="M 466.2241516113281 127.43721008300781 L 466.2241516113281 117.96536254882812" stroke-opacity="1" stroke-linejoin="bevel" stroke-miterlimit="10" stroke-dasharray="" clip-path="url(#NLJfyKAwAitQ)"/><path fill="none" stroke="rgb(0,0,0)" paint-order="fill" d="M 497.74139404296875 123.32868194580078 L 497.74139404296875 114.00728607177734" stroke-opacity="1" stroke-linejoin="bevel" stroke-miterlimit="10" stroke-dasharray="" clip-path="url(#NLJfyKAwAitQ)"/><path fill="none" stroke="rgb(0,0,0)" paint-order="fill" d="M 529.2586059570312 116.67682647705078 L 529.2586059570312 104.96770477294922" stroke-opacity="1" stroke-linejoin="bevel" stroke-miterlimit="10" stroke-dasharray="" clip-path="url(#NLJfyKAwAitQ)"/><path fill="none" stroke="rgb(0,0,0)" paint-order="fill" d="M 560.77587890625 117.42794799804688 L 560.77587890625 106.72830200195312" stroke-opacity="1" stroke-linejoin="bevel" stroke-miterlimit="10" stroke-dasharray="" clip-path="url(#NLJfyKAwAitQ)"/><path fill="none" stroke="rgb(0,0,0)" paint-order="fill" d="M 592.2930908203125 126.20108795166016 L 592.2930908203125 115.31916046142578" stroke-opacity="1" stroke-linejoin="bevel" stroke-miterlimit="10" stroke-dasharray="" clip-path="url(#NLJfyKAwAitQ)"/><path fill="none" stroke="rgb(0,0,0)" paint-order="fill" d="M 623.8103637695312 122.73899841308594 L 623.8103637695312 111.87760162353516" stroke-opacity="1" stroke-linejoin="bevel" stroke-miterlimit="10" stroke-dasharray="" clip-path="url(#NLJfyKAwAitQ)"/><path fill="none" stroke="rgb(0,0,0)" paint-order="fill" d="M 655.3275756835938 104.2967758178711 L 655.3275756835938 92.64937591552734" stroke-opacity="1" stroke-linejoin="bevel" stroke-miterlimit="10" stroke-dasharray="" clip-path="url(#NLJfyKAwAitQ)"/><path fill="none" stroke="rgb(0,0,0)" paint-order="fill" d="M 686.8448486328125 120.25577545166016 L 686.8448486328125 107.19861602783203" stroke-opacity="1" stroke-linejoin="bevel" stroke-miterlimit="10" stroke-dasharray="" clip-path="url(#NLJfyKAwAitQ)"/><path fill="none" stroke="rgb(0,0,0)" paint-order="fill" d="M 718.362060546875 126.27322387695312 L 718.362060546875 115.2657470703125" stroke-opacity="1" stroke-linejoin="bevel" stroke-miterlimit="10" stroke-dasharray="" clip-path="url(#NLJfyKAwAitQ)"/><path fill="none" stroke="rgb(0,0,0)" paint-order="fill" d="M 749.8793334960938 124.00099182128906 L 749.8793334960938 111.6455307006836" stroke-opacity="1" stroke-linejoin="bevel" stroke-miterlimit="10" stroke-dasharray="" clip-path="url(#NLJfyKAwAitQ)"/><path fill="none" stroke="rgb(0,0,0)" paint-order="fill" d="M 781.3965454101562 120.27828979492188 L 781.3965454101562 104.47171020507812" stroke-opacity="1" stroke-linejoin="bevel" stroke-miterlimit="10" stroke-dasharray="" clip-path="url(#NLJfyKAwAitQ)"/><path fill="none" stroke="rgb(0,0,0)" paint-order="fill" d="M 812.913818359375 115.54116821289062 L 812.913818359375 99.00691223144531" stroke-opacity="1" stroke-linejoin="bevel" stroke-miterlimit="10" stroke-dasharray="" clip-path="url(#NLJfyKAwAitQ)"/><path fill="none" stroke="rgb(0,0,0)" paint-order="fill" d="M 844.4310302734375 124.91921997070312 L 844.4310302734375 105.3583984375" stroke-opacity="1" stroke-linejoin="bevel" stroke-miterlimit="10" stroke-dasharray="" clip-path="url(#NLJfyKAwAitQ)"/><path fill="none" stroke="rgb(0,0,0)" paint-order="fill" d="M 875.9483032226562 120.04493713378906 L 875.9483032226562 102.05547332763672" stroke-opacity="1" stroke-linejoin="bevel" stroke-miterlimit="10" stroke-dasharray="" clip-path="url(#NLJfyKAwAitQ)"/><path fill="none" stroke="rgb(0,0,0)" paint-order="fill" d="M 907.4655151367188 118.04817962646484 L 907.4655151367188 95.15770721435547" stroke-opacity="1" stroke-linejoin="bevel" stroke-miterlimit="10" stroke-dasharray="" clip-path="url(#NLJfyKAwAitQ)"/><path fill="none" stroke="rgb(0,0,0)" paint-order="fill" d="M 938.9827880859375 111.45478820800781 L 938.9827880859375 86.03170013427734" stroke-opacity="1" stroke-linejoin="bevel" stroke-miterlimit="10" stroke-dasharray="" clip-path="url(#NLJfyKAwAitQ)"/><path fill="none" stroke="rgb(0,0,0)" paint-order="fill" d="M 970.5 154.6101531982422 L 970.5 111.43984985351562" stroke-opacity="1" stroke-linejoin="bevel" stroke-miterlimit="10" stroke-dasharray="" clip-path="url(#NLJfyKAwAitQ)"/><path fill="none" stroke="rgb(0,0,0)" paint-order="fill" d="M 83.01724243164062 157.18890380859375 L 93.01724243164062 157.18890380859375" stroke-opacity="1" stroke-linejoin="bevel" stroke-miterlimit="10" stroke-dasharray="" clip-path="url(#NLJfyKAwAitQ)"/><path fill="none" stroke="rgb(0,0,0)" paint-order="fill" d="M 114.53448486328125 134.32546997070312 L 124.53448486328125 134.32546997070312" stroke-opacity="1" stroke-linejoin="bevel" stroke-miterlimit="10" stroke-dasharray="" clip-path="url(#NLJfyKAwAitQ)"/><path fill="none" stroke="rgb(0,0,0)" paint-order="fill" d="M 146.05172729492188 136.0157470703125 L 156.05172729492188 136.0157470703125" stroke-opacity="1" stroke-linejoin="bevel" stroke-miterlimit="10" stroke-dasharray="" clip-path="url(#NLJfyKAwAitQ)"/><path fill="none" stroke="rgb(0,0,0)" paint-order="fill" d="M 177.5689697265625 126.04796600341797 L 187.5689697265625 126.04796600341797" stroke-opacity="1" stroke-linejoin="bevel" stroke-miterlimit="10" stroke-dasharray="" clip-path="url(#NLJfyKAwAitQ)"/><path fill="none" stroke="rgb(0,0,0)" paint-order="fill" d="M 209.08621215820312 124.64927673339844 L 219.08621215820312 124.64927673339844" stroke-opacity="1" stroke-linejoin="bevel" stroke-miterlimit="10" stroke-dasharray="" clip-path="url(#NLJfyKAwAitQ)"/><path fill="none" stroke="rgb(0,0,0)" paint-order="fill" d="M 240.60345458984375 124.09278106689453 L 250.60345458984375 124.09278106689453" stroke-opacity="1" stroke-linejoin="bevel" stroke-miterlimit="10" stroke-dasharray="" clip-path="url(#NLJfyKAwAitQ)"/><path fill="none" stroke="rgb(0,0,0)" paint-order="fill" d="M 272.1206970214844 127.8150634765625 L 282.1206970214844 127.8150634765625" stroke-opacity="1" stroke-linejoin="bevel" stroke-miterlimit="10" stroke-dasharray="" clip-path="url(#NLJfyKAwAitQ)"/><path fill="none" stroke="rgb(0,0,0)" paint-order="fill" d="M 303.637939453125 121.13896179199219 L 313.637939453125 121.13896179199219" stroke-opacity="1" stroke-linejoin="bevel" stroke-miterlimit="10" stroke-dasharray="" clip-path="url(#NLJfyKAwAitQ)"/><path fill="none" stroke="rgb(0,0,0)" paint-order="fill" d="M 335.1551818847656 125.55101013183594 L 345.1551818847656 125.55101013183594" stroke-opacity="1" stroke-linejoin="bevel" stroke-miterlimit="10" stroke-dasharray="" clip-path="url(#NLJfyKAwAitQ)"/><path fill="none" stroke="rgb(0,0,0)" paint-order="fill" d="M 366.67242431640625 123.17971801757812 L 376.67242431640625 123.17971801757812" stroke-opacity="1" stroke-linejoin="bevel" stroke-miterlimit="10" stroke-dasharray="" clip-path="url(#NLJfyKAwAitQ)"/><path fill="none" stroke="rgb(0,0,0)" paint-order="fill" d="M 398.1896667480469 120.18688201904297 L 408.1896667480469 120.18688201904297" stroke-opacity="1" stroke-linejoin="bevel" stroke-miterlimit="10" stroke-dasharray="" clip-path="url(#NLJfyKAwAitQ)"/><path fill="none" stroke="rgb(0,0,0)" paint-order="fill" d="M 429.7069091796875 125.85012817382812 L 439.7069091796875 125.85012817382812" stroke-opacity="1" stroke-linejoin="bevel" stroke-miterlimit="10" stroke-dasharray="" clip-path="url(#NLJfyKAwAitQ)"/><path fill="none" stroke="rgb(0,0,0)" paint-order="fill" d="M 461.2241516113281 127.43721008300781 L 471.2241516113281 127.43721008300781" stroke-opacity="1" stroke-linejoin="bevel" stroke-miterlimit="10" stroke-dasharray="" clip-path="url(#NLJfyKAwAitQ)"/><path fill="none" stroke="rgb(0,0,0)" paint-order="fill" d="M 492.74139404296875 123.32868194580078 L 502.74139404296875 123.32868194580078" stroke-opacity="1" stroke-linejoin="bevel" stroke-miterlimit="10" stroke-dasharray="" clip-path="url(#NLJfyKAwAitQ)"/><path fill="none" stroke="rgb(0,0,0)" paint-order="fill" d="M 524.2586059570312 116.67682647705078 L 534.2586059570312 116.67682647705078" stroke-opacity="1" stroke-linejoin="bevel" stroke-miterlimit="10" stroke-dasharray="" clip-path="url(#NLJfyKAwAitQ)"/><path fill="none" stroke="rgb(0,0,0)" paint-order="fill" d="M 555.77587890625 117.42794799804688 L 565.77587890625 117.42794799804688" stroke-opacity="1" stroke-linejoin="bevel" stroke-miterlimit="10" stroke-dasharray="" clip-path="url(#NLJfyKAwAitQ)"/><path fill="none" stroke="rgb(0,0,0)" paint-order="fill" d="M 587.2930908203125 126.20108795166016 L 597.2930908203125 126.20108795166016" stroke-opacity="1" stroke-linejoin="bevel" stroke-miterlimit="10" stroke-dasharray="" clip-path="url(#NLJfyKAwAitQ)"/><path fill="none" stroke="rgb(0,0,0)" paint-order="fill" d="M 618.8103637695312 122.73899841308594 L 628.8103637695312 122.73899841308594" stroke-opacity="1" stroke-linejoin="bevel" stroke-miterlimit="10" stroke-dasharray="" clip-path="url(#NLJfyKAwAitQ)"/><path fill="none" stroke="rgb(0,0,0)" paint-order="fill" d="M 650.3275756835938 104.2967758178711 L 660.3275756835938 104.2967758178711" stroke-opacity="1" stroke-linejoin="bevel" stroke-miterlimit="10" stroke-dasharray="" clip-path="url(#NLJfyKAwAitQ)"/><path fill="none" stroke="rgb(0,0,0)" paint-order="fill" d="M 681.8448486328125 120.25577545166016 L 691.8448486328125 120.25577545166016" stroke-opacity="1" stroke-linejoin="bevel" stroke-miterlimit="10" stroke-dasharray="" clip-path="url(#NLJfyKAwAitQ)"/><path fill="none" stroke="rgb(0,0,0)" paint-order="fill" d="M 713.362060546875 126.27322387695312 L 723.362060546875 126.27322387695312" stroke-opacity="1" stroke-linejoin="bevel" stroke-miterlimit="10" stroke-dasharray="" clip-path="url(#NLJfyKAwAitQ)"/><path fill="none" stroke="rgb(0,0,0)" paint-order="fill" d="M 744.8793334960938 124.00099182128906 L 754.8793334960938 124.00099182128906" stroke-opacity="1" stroke-linejoin="bevel" stroke-miterlimit="10" stroke-dasharray="" clip-path="url(#NLJfyKAwAitQ)"/><path fill="none" stroke="rgb(0,0,0)" paint-order="fill" d="M 776.3965454101562 120.27828979492188 L 786.3965454101562 120.27828979492188" stroke-opacity="1" stroke-linejoin="bevel" stroke-miterlimit="10" stroke-dasharray="" clip-path="url(#NLJfyKAwAitQ)"/><path fill="none" stroke="rgb(0,0,0)" paint-order="fill" d="M 807.913818359375 115.54116821289062 L 817.913818359375 115.54116821289062" stroke-opacity="1" stroke-linejoin="bevel" stroke-miterlimit="10" stroke-dasharray="" clip-path="url(#NLJfyKAwAitQ)"/><path fill="none" stroke="rgb(0,0,0)" paint-order="fill" d="M 839.4310302734375 124.91921997070312 L 849.4310302734375 124.91921997070312" stroke-opacity="1" stroke-linejoin="bevel" stroke-miterlimit="10" stroke-dasharray="" clip-path="url(#NLJfyKAwAitQ)"/><path fill="none" stroke="rgb(0,0,0)" paint-order="fill" d="M 870.9483032226562 120.04493713378906 L 880.9483032226562 120.04493713378906" stroke-opacity="1" stroke-linejoin="bevel" stroke-miterlimit="10" stroke-dasharray="" clip-path="url(#NLJfyKAwAitQ)"/><path fill="none" stroke="rgb(0,0,0)" paint-order="fill" d="M 902.4655151367188 118.04817962646484 L 912.4655151367188 118.04817962646484" stroke-opacity="1" stroke-linejoin="bevel" stroke-miterlimit="10" stroke-dasharray="" clip-path="url(#NLJfyKAwAitQ)"/><path fill="none" stroke="rgb(0,0,0)" paint-order="fill" d="M 933.9827880859375 111.45478820800781 L 943.9827880859375 111.45478820800781" stroke-opacity="1" stroke-linejoin="bevel" stroke-miterlimit="10" stroke-dasharray="" clip-path="url(#NLJfyKAwAitQ)"/><path fill="none" stroke="rgb(0,0,0)" paint-order="fill" d="M 965.5 154.6101531982422 L 975.5 154.6101531982422" stroke-opacity="1" stroke-linejoin="bevel" stroke-miterlimit="10" stroke-dasharray="" clip-path="url(#NLJfyKAwAitQ)"/><path fill="none" stroke="rgb(0,0,0)" paint-order="fill" d="M 93.01724243164062 148.88192749023438 L 83.01724243164062 148.88192749023438" stroke-opacity="1" stroke-linejoin="bevel" stroke-miterlimit="10" stroke-dasharray="" clip-path="url(#NLJfyKAwAitQ)"/><path fill="none" stroke="rgb(0,0,0)" paint-order="fill" d="M 124.53448486328125 127.17679595947266 L 114.53448486328125 127.17679595947266" stroke-opacity="1" stroke-linejoin="bevel" stroke-miterlimit="10" stroke-dasharray="" clip-path="url(#NLJfyKAwAitQ)"/><path fill="none" stroke="rgb(0,0,0)" paint-order="fill" d="M 156.05172729492188 129.45750427246094 L 146.05172729492188 129.45750427246094" stroke-opacity="1" stroke-linejoin="bevel" stroke-miterlimit="10" stroke-dasharray="" clip-path="url(#NLJfyKAwAitQ)"/><path fill="none" stroke="rgb(0,0,0)" paint-order="fill" d="M 187.5689697265625 118.089599609375 L 177.5689697265625 118.089599609375" stroke-opacity="1" stroke-linejoin="bevel" stroke-miterlimit="10" stroke-dasharray="" clip-path="url(#NLJfyKAwAitQ)"/><path fill="none" stroke="rgb(0,0,0)" paint-order="fill" d="M 219.08621215820312 116.95304107666016 L 209.08621215820312 116.95304107666016" stroke-opacity="1" stroke-linejoin="bevel" stroke-miterlimit="10" stroke-dasharray="" clip-path="url(#NLJfyKAwAitQ)"/><path fill="none" stroke="rgb(0,0,0)" paint-order="fill" d="M 250.60345458984375 116.47660827636719 L 240.60345458984375 116.47660827636719" stroke-opacity="1" stroke-linejoin="bevel" stroke-miterlimit="10" stroke-dasharray="" clip-path="url(#NLJfyKAwAitQ)"/><path fill="none" stroke="rgb(0,0,0)" paint-order="fill" d="M 282.1206970214844 120.45782470703125 L 272.1206970214844 120.45782470703125" stroke-opacity="1" stroke-linejoin="bevel" stroke-miterlimit="10" stroke-dasharray="" clip-path="url(#NLJfyKAwAitQ)"/><path fill="none" stroke="rgb(0,0,0)" paint-order="fill" d="M 313.637939453125 112.89437103271484 L 303.637939453125 112.89437103271484" stroke-opacity="1" stroke-linejoin="bevel" stroke-miterlimit="10" stroke-dasharray="" clip-path="url(#NLJfyKAwAitQ)"/><path fill="none" stroke="rgb(0,0,0)" paint-order="fill" d="M 345.1551818847656 117.09751892089844 L 335.1551818847656 117.09751892089844" stroke-opacity="1" stroke-linejoin="bevel" stroke-miterlimit="10" stroke-dasharray="" clip-path="url(#NLJfyKAwAitQ)"/><path fill="none" stroke="rgb(0,0,0)" paint-order="fill" d="M 376.67242431640625 115.1123275756836 L 366.67242431640625 115.1123275756836" stroke-opacity="1" stroke-linejoin="bevel" stroke-miterlimit="10" stroke-dasharray="" clip-path="url(#NLJfyKAwAitQ)"/><path fill="none" stroke="rgb(0,0,0)" paint-order="fill" d="M 408.1896667480469 112.04434967041016 L 398.1896667480469 112.04434967041016" stroke-opacity="1" stroke-linejoin="bevel" stroke-miterlimit="10" stroke-dasharray="" clip-path="url(#NLJfyKAwAitQ)"/><path fill="none" stroke="rgb(0,0,0)" paint-order="fill" d="M 439.7069091796875 116.8703384399414 L 429.7069091796875 116.8703384399414" stroke-opacity="1" stroke-linejoin="bevel" stroke-miterlimit="10" stroke-dasharray="" clip-path="url(#NLJfyKAwAitQ)"/><path fill="none" stroke="rgb(0,0,0)" paint-order="fill" d="M 471.2241516113281 117.96536254882812 L 461.2241516113281 117.96536254882812" stroke-opacity="1" stroke-linejoin="bevel" stroke-miterlimit="10" stroke-dasharray="" clip-path="url(#NLJfyKAwAitQ)"/><path fill="none" stroke="rgb(0,0,0)" paint-order="fill" d="M 502.74139404296875 114.00728607177734 L 492.74139404296875 114.00728607177734" stroke-opacity="1" stroke-linejoin="bevel" stroke-miterlimit="10" stroke-dasharray="" clip-path="url(#NLJfyKAwAitQ)"/><path fill="none" stroke="rgb(0,0,0)" paint-order="fill" d="M 534.2586059570312 104.96770477294922 L 524.2586059570312 104.96770477294922" stroke-opacity="1" stroke-linejoin="bevel" stroke-miterlimit="10" stroke-dasharray="" clip-path="url(#NLJfyKAwAitQ)"/><path fill="none" stroke="rgb(0,0,0)" paint-order="fill" d="M 565.77587890625 106.72830200195312 L 555.77587890625 106.72830200195312" stroke-opacity="1" stroke-linejoin="bevel" stroke-miterlimit="10" stroke-dasharray="" clip-path="url(#NLJfyKAwAitQ)"/><path fill="none" stroke="rgb(0,0,0)" paint-order="fill" d="M 597.2930908203125 115.31916046142578 L 587.2930908203125 115.31916046142578" stroke-opacity="1" stroke-linejoin="bevel" stroke-miterlimit="10" stroke-dasharray="" clip-path="url(#NLJfyKAwAitQ)"/><path fill="none" stroke="rgb(0,0,0)" paint-order="fill" d="M 628.8103637695312 111.87760162353516 L 618.8103637695312 111.87760162353516" stroke-opacity="1" stroke-linejoin="bevel" stroke-miterlimit="10" stroke-dasharray="" clip-path="url(#NLJfyKAwAitQ)"/><path fill="none" stroke="rgb(0,0,0)" paint-order="fill" d="M 660.3275756835938 92.64937591552734 L 650.3275756835938 92.64937591552734" stroke-opacity="1" stroke-linejoin="bevel" stroke-miterlimit="10" stroke-dasharray="" clip-path="url(#NLJfyKAwAitQ)"/><path fill="none" stroke="rgb(0,0,0)" paint-order="fill" d="M 691.8448486328125 107.19861602783203 L 681.8448486328125 107.19861602783203" stroke-opacity="1" stroke-linejoin="bevel" stroke-miterlimit="10" stroke-dasharray="" clip-path="url(#NLJfyKAwAitQ)"/><path fill="none" stroke="rgb(0,0,0)" paint-order="fill" d="M 723.362060546875 115.2657470703125 L 713.362060546875 115.2657470703125" stroke-opacity="1" stroke-linejoin="bevel" stroke-miterlimit="10" stroke-dasharray="" clip-path="url(#NLJfyKAwAitQ)"/><path fill="none" stroke="rgb(0,0,0)" paint-order="fill" d="M 754.8793334960938 111.6455307006836 L 744.8793334960938 111.6455307006836" stroke-opacity="1" stroke-linejoin="bevel" stroke-miterlimit="10" stroke-dasharray="" clip-path="url(#NLJfyKAwAitQ)"/><path fill="none" stroke="rgb(0,0,0)" paint-order="fill" d="M 786.3965454101562 104.47171020507812 L 776.3965454101562 104.47171020507812" stroke-opacity="1" stroke-linejoin="bevel" stroke-miterlimit="10" stroke-dasharray="" clip-path="url(#NLJfyKAwAitQ)"/><path fill="none" stroke="rgb(0,0,0)" paint-order="fill" d="M 817.913818359375 99.00691223144531 L 807.913818359375 99.00691223144531" stroke-opacity="1" stroke-linejoin="bevel" stroke-miterlimit="10" stroke-dasharray="" clip-path="url(#NLJfyKAwAitQ)"/><path fill="none" stroke="rgb(0,0,0)" paint-order="fill" d="M 849.4310302734375 105.3583984375 L 839.4310302734375 105.3583984375" stroke-opacity="1" stroke-linejoin="bevel" stroke-miterlimit="10" stroke-dasharray="" clip-path="url(#NLJfyKAwAitQ)"/><path fill="none" stroke="rgb(0,0,0)" paint-order="fill" d="M 880.9483032226562 102.05547332763672 L 870.9483032226562 102.05547332763672" stroke-opacity="1" stroke-linejoin="bevel" stroke-miterlimit="10" stroke-dasharray="" clip-path="url(#NLJfyKAwAitQ)"/><path fill="none" stroke="rgb(0,0,0)" paint-order="fill" d="M 912.4655151367188 95.15770721435547 L 902.4655151367188 95.15770721435547" stroke-opacity="1" stroke-linejoin="bevel" stroke-miterlimit="10" stroke-dasharray="" clip-path="url(#NLJfyKAwAitQ)"/><path fill="none" stroke="rgb(0,0,0)" paint-order="fill" d="M 943.9827880859375 86.03170013427734 L 933.9827880859375 86.03170013427734" stroke-opacity="1" stroke-linejoin="bevel" stroke-miterlimit="10" stroke-dasharray="" clip-path="url(#NLJfyKAwAitQ)"/><path fill="none" stroke="rgb(0,0,0)" paint-order="fill" d="M 975.5 111.43984985351562 L 965.5 111.43984985351562" stroke-opacity="1" stroke-linejoin="bevel" stroke-miterlimit="10" stroke-dasharray="" clip-path="url(#NLJfyKAwAitQ)"/><path fill="none" stroke="rgb(0,0,0)" paint-order="fill" d="M 88.01724243164062 120.42213439941406 L 88.01724243164062 116.55148315429688" stroke-opacity="1" stroke-linejoin="bevel" stroke-miterlimit="10" stroke-dasharray="" clip-path="url(#LElonwvkCAav)"/><path fill="none" stroke="rgb(0,0,0)" paint-order="fill" d="M 83.01724243164062 120.42213439941406 L 93.01724243164062 120.42213439941406" stroke-opacity="1" stroke-linejoin="bevel" stroke-miterlimit="10" stroke-dasharray="" clip-path="url(#LElonwvkCAav)"/><path fill="none" stroke="rgb(0,0,0)" paint-order="fill" d="M 93.01724243164062 116.55148315429688 L 83.01724243164062 116.55148315429688" stroke-opacity="1" stroke-linejoin="bevel" stroke-miterlimit="10" stroke-dasharray="" clip-path="url(#LElonwvkCAav)"/><path fill="none" stroke="rgb(0,0,0)" paint-order="fill" d="M 72.25862121582031 108.99706268310547 L 72.25862121582031 107.5270004272461" stroke-opacity="1" stroke-linejoin="bevel" stroke-miterlimit="10" stroke-dasharray="" clip-path="url(#cVrpBZqMFrOz)"/><path fill="none" stroke="rgb(0,0,0)" paint-order="fill" d="M 67.25862121582031 108.99706268310547 L 77.25862121582031 108.99706268310547" stroke-opacity="1" stroke-linejoin="bevel" stroke-miterlimit="10" stroke-dasharray="" clip-path="url(#cVrpBZqMFrOz)"/><path fill="none" stroke="rgb(0,0,0)" paint-order="fill" d="M 77.25862121582031 107.5270004272461 L 67.25862121582031 107.5270004272461" stroke-opacity="1" stroke-linejoin="bevel" stroke-miterlimit="10" stroke-dasharray="" clip-path="url(#cVrpBZqMFrOz)"/><path fill="none" stroke="none"/><path fill="none" stroke="rgb(48,162,218)" paint-order="fill" d="M 88.01724243164062 153.03541564941406 L 119.53448486328125 130.75112915039062 L 151.05172729492188 132.73663330078125 L 182.5689697265625 122.06878662109375 L 214.08621215820312 120.80115509033203 L 245.60345458984375 120.28469848632812 L 277.1206970214844 124.13644409179688 L 308.637939453125 117.01667022705078 L 340.1551818847656 121.32426452636719 L 371.67242431640625 119.1460189819336 L 403.1896667480469 116.11561584472656 L 434.7069091796875 121.36023712158203 L 466.2241516113281 122.70128631591797 L 497.74139404296875 118.66798400878906 L 529.2586059570312 110.822265625 L 560.77587890625 112.078125 L 592.2930908203125 120.76012420654297 L 623.8103637695312 117.30830383300781 L 655.3275756835938 98.47307586669922 L 686.8448486328125 113.7271957397461 L 718.362060546875 120.76948547363281 L 749.8793334960938 117.82325744628906 L 781.3965454101562 112.375 L 812.913818359375 107.27404022216797 L 844.4310302734375 115.13880920410156 L 875.9483032226562 111.05020141601562 L 907.4655151367188 106.60294342041016 L 938.9827880859375 98.74324035644531 L 970.5 133.02499389648438" stroke-opacity="1" stroke-linejoin="bevel" stroke-miterlimit="10" stroke-width="2" stroke-dasharray="" clip-path="url(#GqdJWmBbyzPT)"/><path fill="none" stroke="none"/><path fill="none" stroke="rgb(252,79,48)" paint-order="fill" d="M 56.5 162.13253784179688 L 58.3316650390625 161.16940307617188 L 60.163326263427734 160.2257843017578 L 61.994991302490234 159.30128479003906 L 63.82665252685547 158.39553833007812 L 65.65831756591797 157.5081329345703 L 67.48998260498047 156.6387176513672 L 69.32164001464844 155.7869110107422 L 71.15330505371094 154.95237731933594 L 72.98497009277344 154.13475036621094 L 74.81663513183594 153.3336944580078 L 76.64830017089844 152.5488739013672 L 78.4799575805664 151.7799530029297 L 80.3116226196289 151.02662658691406 L 82.1432876586914 150.28855895996094 L 83.9749526977539 149.56544494628906 L 85.80661010742188 148.8569793701172 L 87.63827514648438 148.1628875732422 L 89.46994018554688 147.48284912109375 L 91.30160522460938 146.8166046142578 L 93.13327026367188 146.16384887695312 L 94.96492767333984 145.52432250976562 L 96.79659271240234 144.89776611328125 L 98.62825775146484 144.2838897705078 L 100.45992279052734 143.68246459960938 L 102.29158020019531 143.09323120117188 L 104.12324523925781 142.5159454345703 L 105.95491027832031 141.95034790039062 L 107.78657531738281 141.39620971679688 L 109.61823272705078 140.85330200195312 L 111.44989776611328 140.32139587402344 L 113.28156280517578 139.80027770996094 L 115.11322784423828 139.2897186279297 L 116.94489288330078 138.78948974609375 L 118.77655029296875 138.29942321777344 L 120.60821533203125 137.81927490234375 L 122.43988037109375 137.34884643554688 L 124.27154541015625 136.88796997070312 L 126.10320281982422 136.43641662597656 L 127.93486785888672 135.99403381347656 L 129.76654052734375 135.56060791015625 L 131.5981903076172 135.13595581054688 L 133.4298553466797 134.7199249267578 L 135.2615203857422 134.31231689453125 L 137.0931854248047 133.9129638671875 L 138.9248504638672 133.52171325683594 L 140.7565155029297 133.1383819580078 L 142.5881805419922 132.7628173828125 L 144.4198455810547 132.39488220214844 L 146.2515106201172 132.03439331054688 L 148.08316040039062 131.6811981201172 L 149.91482543945312 131.33517456054688 L 151.74649047851562 130.99615478515625 L 153.57815551757812 130.6640167236328 L 155.40982055664062 130.33860778808594 L 157.24148559570312 130.019775390625 L 159.07315063476562 129.70742797851562 L 160.90481567382812 129.40139770507812 L 162.73646545410156 129.1015625 L 164.56813049316406 128.8078155517578 L 166.39979553222656 128.52001953125 L 168.23146057128906 128.2380599975586 L 170.06312561035156 127.96180725097656 L 171.89479064941406 127.69115447998047 L 173.72645568847656 127.42598724365234 L 175.55812072753906 127.16619110107422 L 177.38978576660156 126.91165924072266 L 179.221435546875 126.66229248046875 L 181.0531005859375 126.41796875 L 182.884765625 126.17860412597656 L 184.7164306640625 125.944091796875 L 186.548095703125 125.71432495117188 L 188.3797607421875 125.48921966552734 L 190.21142578125 125.2686767578125 L 192.0430908203125 125.05259704589844 L 193.874755859375 124.84090423583984 L 195.70640563964844 124.63349914550781 L 197.53807067871094 124.43029022216797 L 199.36973571777344 124.23120880126953 L 201.20140075683594 124.0361557006836 L 203.03306579589844 123.84506225585938 L 204.86473083496094 123.65782928466797 L 206.69639587402344 123.47440338134766 L 208.52806091308594 123.29468536376953 L 210.35972595214844 123.11861419677734 L 212.19137573242188 122.94611358642578 L 214.02304077148438 122.77710723876953 L 215.85470581054688 122.61151885986328 L 217.68637084960938 122.44929504394531 L 219.51803588867188 122.29035186767578 L 221.34970092773438 122.13463592529297 L 223.18136596679688 121.98207092285156 L 225.01303100585938 121.83259582519531 L 226.84469604492188 121.6861572265625 L 228.6763458251953 121.54267883300781 L 230.5080108642578 121.40211486816406 L 232.3396759033203 121.26439666748047 L 234.1713409423828 121.12947082519531 L 236.0030059814453 120.99727630615234 L 237.8346710205078 120.86775970458984 L 239.6663360595703 120.74087524414062 L 241.4980010986328 120.6165542602539 L 243.3296661376953 120.4947509765625 L 245.16131591796875 120.37542724609375 L 246.99298095703125 120.25851440429688 L 248.82464599609375 120.14396667480469 L 250.65631103515625 120.03174591064453 L 252.48797607421875 119.92179870605469 L 254.31964111328125 119.81407928466797 L 256.15130615234375 119.70854187011719 L 257.98297119140625 119.60514831542969 L 259.81463623046875 119.50384521484375 L 261.64630126953125 119.40459442138672 L 263.47796630859375 119.30735778808594 L 265.30963134765625 119.21208953857422 L 267.14129638671875 119.1187515258789 L 268.9729309082031 119.02730560302734 L 270.8045959472656 118.93771362304688 L 272.6362609863281 118.84993743896484 L 274.4679260253906 118.7639389038086 L 276.2995910644531 118.6796875 L 278.1312561035156 118.59713745117188 L 279.9629211425781 118.5162582397461 L 281.7945861816406 118.43702697753906 L 283.6262512207031 118.3593978881836 L 285.4579162597656 118.28334045410156 L 287.2895812988281 118.20882415771484 L 289.1212463378906 118.13581848144531 L 290.9529113769531 118.06429290771484 L 292.7845764160156 117.99421691894531 L 294.6162414550781 117.9255599975586 L 296.4479064941406 117.85829162597656 L 298.2795715332031 117.79238891601562 L 300.1112365722656 117.72782897949219 L 301.94287109375 117.66456604003906 L 303.7745361328125 117.60259246826172 L 305.606201171875 117.5418701171875 L 307.4378662109375 117.48238372802734 L 309.26953125 117.4240951538086 L 311.1011962890625 117.36699676513672 L 312.932861328125 117.31105041503906 L 314.7645263671875 117.25624084472656 L 316.59619140625 117.2025375366211 L 318.4278564453125 117.1499252319336 L 320.259521484375 117.09838104248047 L 322.0911865234375 117.0478744506836 L 323.9228515625 116.99839782714844 L 325.7545166015625 116.94992065429688 L 327.586181640625 116.90242767333984 L 329.4178466796875 116.85589599609375 L 331.24951171875 116.81031036376953 L 333.0811767578125 116.7656478881836 L 334.9128112792969 116.72188568115234 L 336.7444763183594 116.67901611328125 L 338.5761413574219 116.63700866699219 L 340.4078063964844 116.59585571289062 L 342.2394714355469 116.5555419921875 L 344.0711364746094 116.51603698730469 L 345.9028015136719 116.47734069824219 L 347.7344665527344 116.43942260742188 L 349.5661315917969 116.40227508544922 L 351.3977966308594 116.36588287353516 L 353.2294616699219 116.3302230834961 L 355.0611267089844 116.2952880859375 L 356.8927917480469 116.26106262207031 L 358.7244567871094 116.22752380371094 L 360.5561218261719 116.19467163085938 L 362.3877868652344 116.16248321533203 L 364.2194519042969 116.13095092773438 L 366.0511169433594 116.10005187988281 L 367.88275146484375 116.06977844238281 L 369.71441650390625 116.04012298583984 L 371.54608154296875 116.01107025146484 L 373.37774658203125 115.98259735107422 L 375.20941162109375 115.9547119140625 L 377.04107666015625 115.92738342285156 L 378.87274169921875 115.9006118774414 L 380.70440673828125 115.87438201904297 L 382.53607177734375 115.84868621826172 L 384.36773681640625 115.8235092163086 L 386.19940185546875 115.79884338378906 L 388.03106689453125 115.7746810913086 L 389.86273193359375 115.7509994506836 L 391.69439697265625 115.7278060913086 L 393.52606201171875 115.705078125 L 395.35772705078125 115.68280792236328 L 397.18939208984375 115.66099548339844 L 399.02105712890625 115.6396255493164 L 400.8526916503906 115.61868286132812 L 402.6843566894531 115.5981674194336 L 404.5160217285156 115.57807159423828 L 406.3476867675781 115.55838012695312 L 408.1793518066406 115.5390853881836 L 410.0110168457031 115.52017974853516 L 411.8426818847656 115.50166320800781 L 413.6743469238281 115.4835205078125 L 415.5060119628906 115.46574401855469 L 417.3376770019531 115.44832611083984 L 419.1693420410156 115.43125915527344 L 421.0010070800781 115.41454315185547 L 422.8326721191406 115.39816284179688 L 424.6643371582031 115.38211822509766 L 426.4960021972656 115.36640167236328 L 428.3276672363281 115.35099792480469 L 430.1593322753906 115.33590698242188 L 431.990966796875 115.32112121582031 L 433.8226318359375 115.30663299560547 L 435.654296875 115.29244232177734 L 437.4859619140625 115.2785415649414 L 439.317626953125 115.2649154663086 L 441.1492919921875 115.25157165527344 L 442.98095703125 115.23849487304688 L 444.8126220703125 115.2256851196289 L 446.644287109375 115.213134765625 L 448.4759521484375 115.20083618164062 L 450.3076171875 115.18878936767578 L 452.1392822265625 115.17698669433594 L 453.970947265625 115.16542053222656 L 455.8026123046875 115.15409088134766 L 457.63427734375 115.14299011230469 L 459.4659423828125 115.13211822509766 L 461.297607421875 115.1214599609375 L 463.1292724609375 115.11102294921875 L 464.9609069824219 115.10079193115234 L 466.7925720214844 115.09077453613281 L 468.6242370605469 115.0809555053711 L 470.4559020996094 115.07133483886719 L 472.2875671386719 115.0619125366211 L 474.1192321777344 115.05268096923828 L 475.9508972167969 115.04364013671875 L 477.7825622558594 115.03477478027344 L 479.6142272949219 115.02609252929688 L 481.4458923339844 115.01758575439453 L 483.2775573730469 115.0092544555664 L 485.1092224121094 115.00108337402344 L 486.9408874511719 114.99308776855469 L 488.7725524902344 114.9852523803711 L 490.6042175292969 114.97756958007812 L 492.4358825683594 114.97004699707031 L 494.2675476074219 114.96267700195312 L 496.0992126464844 114.95545196533203 L 497.93084716796875 114.94837951660156 L 499.76251220703125 114.94145202636719 L 501.59417724609375 114.93466186523438 L 503.42584228515625 114.9280014038086 L 505.25750732421875 114.9214859008789 L 507.08917236328125 114.91510009765625 L 508.92083740234375 114.90884399414062 L 510.75250244140625 114.9027099609375 L 512.5841674804688 114.8967056274414 L 514.4158325195312 114.89082336425781 L 516.2474975585938 114.88505554199219 L 518.0791625976562 114.87940979003906 L 519.9108276367188 114.87387084960938 L 521.7424926757812 114.86845397949219 L 523.5741577148438 114.86314392089844 L 525.4058227539062 114.85794067382812 L 527.2374877929688 114.85283660888672 L 529.0691528320312 114.84783935546875 L 530.9008178710938 114.84294891357422 L 532.7324829101562 114.83815002441406 L 534.5641479492188 114.83345794677734 L 536.3958129882812 114.82884979248047 L 538.2274780273438 114.8243408203125 L 540.0591430664062 114.8199234008789 L 541.8908081054688 114.81559753417969 L 543.7224731445312 114.81135559082031 L 545.5541381835938 114.80720520019531 L 547.3857421875 114.80313110351562 L 549.2174072265625 114.79914093017578 L 551.049072265625 114.79523468017578 L 552.8807373046875 114.79141235351562 L 554.71240234375 114.78765869140625 L 556.5440673828125 114.78398132324219 L 558.375732421875 114.78038024902344 L 560.2073974609375 114.77685546875 L 562.0390625 114.77339935302734 L 563.8707275390625 114.77001190185547 L 565.702392578125 114.7667007446289 L 567.5340576171875 114.7634506225586 L 569.36572265625 114.76026153564453 L 571.1973876953125 114.75714874267578 L 573.029052734375 114.75408935546875 L 574.8607177734375 114.7510986328125 L 576.6923828125 114.74816131591797 L 578.5240478515625 114.74528503417969 L 580.355712890625 114.74246978759766 L 582.1873779296875 114.73971557617188 L 584.01904296875 114.73700714111328 L 585.8507080078125 114.73435974121094 L 587.682373046875 114.73176574707031 L 589.5140380859375 114.7292251586914 L 591.345703125 114.72673797607422 L 593.1773681640625 114.72429656982422 L 595.009033203125 114.72190856933594 L 596.8406982421875 114.71956634521484 L 598.67236328125 114.71726989746094 L 600.5040283203125 114.71501922607422 L 602.335693359375 114.71282196044922 L 604.1673583984375 114.71066284179688 L 605.9990234375 114.70854949951172 L 607.8306884765625 114.70647430419922 L 609.662353515625 114.7044448852539 L 611.4939575195312 114.70246124267578 L 613.3256225585938 114.70050811767578 L 615.1572875976562 114.69860076904297 L 616.9889526367188 114.69673156738281 L 618.8206176757812 114.69490051269531 L 620.6522827148438 114.69310760498047 L 622.4839477539062 114.69134521484375 L 624.3156127929688 114.68962097167969 L 626.1472778320312 114.68793487548828 L 627.9789428710938 114.68628692626953 L 629.8106079101562 114.68466186523438 L 631.6422729492188 114.68307495117188 L 633.4739379882812 114.6815185546875 L 635.3056030273438 114.68000030517578 L 637.1372680664062 114.67850494384766 L 638.9689331054688 114.67704010009766 L 640.8005981445312 114.67560577392578 L 642.6322631835938 114.67420196533203 L 644.4639282226562 114.6728286743164 L 646.2955932617188 114.6714859008789 L 648.1272583007812 114.670166015625 L 649.9589233398438 114.66886901855469 L 651.7905883789062 114.6676025390625 L 653.6222534179688 114.6663589477539 L 655.4539184570312 114.66514587402344 L 657.2855834960938 114.66395568847656 L 659.1172485351562 114.66278839111328 L 660.9489135742188 114.6616439819336 L 662.7805786132812 114.6605224609375 L 664.6122436523438 114.659423828125 L 666.4439086914062 114.6583480834961 L 668.2755737304688 114.65729522705078 L 670.1072387695312 114.65625762939453 L 671.9389038085938 114.6552505493164 L 673.7705688476562 114.65425872802734 L 675.6022338867188 114.65328979492188 L 677.433837890625 114.65233612060547 L 679.2655029296875 114.65140533447266 L 681.09716796875 114.6504898071289 L 682.9288330078125 114.64959716796875 L 684.760498046875 114.64871978759766 L 686.5921630859375 114.64785766601562 L 688.423828125 114.64701843261719 L 690.2554931640625 114.64619445800781 L 692.087158203125 114.6453857421875 L 693.9188232421875 114.64459228515625 L 695.75048828125 114.6438217163086 L 697.5821533203125 114.64305877685547 L 699.413818359375 114.64231872558594 L 701.2454833984375 114.64158630371094 L 703.0771484375 114.640869140625 L 704.9088134765625 114.64017486572266 L 706.740478515625 114.63948822021484 L 708.5721435546875 114.6388168334961 L 710.40380859375 114.6381607055664 L 712.2354736328125 114.63751220703125 L 714.067138671875 114.63687896728516 L 715.8988037109375 114.63626098632812 L 717.73046875 114.63565826416016 L 719.5621337890625 114.63506317138672 L 721.393798828125 114.63447570800781 L 723.2254638671875 114.6339111328125 L 725.05712890625 114.63335418701172 L 726.8887939453125 114.63280487060547 L 728.720458984375 114.63226318359375 L 730.5521240234375 114.63174438476562 L 732.3837890625 114.6312255859375 L 734.2154541015625 114.63072204589844 L 736.047119140625 114.6302261352539 L 737.8787841796875 114.62974548339844 L 739.71044921875 114.6292724609375 L 741.5421142578125 114.6288070678711 L 743.3737182617188 114.62834930419922 L 745.2053833007812 114.6279067993164 L 747.0370483398438 114.6274642944336 L 748.8687133789062 114.62703704833984 L 750.7003784179688 114.62661743164062 L 752.5320434570312 114.62620544433594 L 754.3637084960938 114.62580871582031 L 756.1953735351562 114.62541198730469 L 758.0270385742188 114.6250228881836 L 759.8587036132812 114.62464904785156 L 761.6903686523438 114.62427520751953 L 763.5220336914062 114.62390899658203 L 765.3536987304688 114.6235580444336 L 767.1853637695312 114.62320709228516 L 769.0170288085938 114.62286376953125 L 770.8486938476562 114.62252807617188 L 772.6803588867188 114.62220001220703 L 774.5120239257812 114.62187957763672 L 776.3436889648438 114.62156677246094 L 778.1753540039062 114.62125396728516 L 780.0070190429688 114.62095642089844 L 781.8386840820312 114.62065887451172 L 783.6703491210938 114.62036895751953 L 785.5020141601562 114.62008666992188 L 787.3336791992188 114.61980438232422 L 789.1653442382812 114.6195297241211 L 790.9970092773438 114.6192626953125 L 792.8286743164062 114.61900329589844 L 794.6603393554688 114.61874389648438 L 796.4920043945312 114.61849212646484 L 798.3236694335938 114.61824798583984 L 800.1553344726562 114.61801147460938 L 801.9869995117188 114.6177749633789 L 803.8186645507812 114.61753845214844 L 805.6503295898438 114.6173095703125 L 807.48193359375 114.6170883178711 L 809.3135986328125 114.61687469482422 L 811.145263671875 114.61666107177734 L 812.9769287109375 114.61644744873047 L 814.80859375 114.61624145507812 L 816.6402587890625 114.61604309082031 L 818.471923828125 114.6158447265625 L 820.3035888671875 114.61565399169922 L 822.13525390625 114.61546325683594 L 823.9669189453125 114.61528015136719 L 825.798583984375 114.61509704589844 L 827.6302490234375 114.61492156982422 L 829.4619140625 114.61474609375 L 831.2935791015625 114.61457824707031 L 833.125244140625 114.61441040039062 L 834.9569091796875 114.61425018310547 L 836.78857421875 114.61408996582031 L 838.6202392578125 114.61392974853516 L 840.451904296875 114.61377716064453 L 842.2835693359375 114.6136245727539 L 844.115234375 114.61347961425781 L 845.9468994140625 114.61333465576172 L 847.778564453125 114.61318969726562 L 849.6102294921875 114.61305236816406 L 851.44189453125 114.6129150390625 L 853.2735595703125 114.61278533935547 L 855.105224609375 114.61265563964844 L 856.9368896484375 114.6125259399414 L 858.7685546875 114.61239624023438 L 860.6002197265625 114.61227416992188 L 862.431884765625 114.6121597290039 L 864.2635498046875 114.6120376586914 L 866.09521484375 114.61192321777344 L 867.9268798828125 114.61180877685547 L 869.758544921875 114.61170196533203 L 871.5902099609375 114.61158752441406 L 873.4218139648438 114.61148071289062 L 875.2534790039062 114.61138153076172 L 877.0851440429688 114.61127471923828 L 878.9168090820312 114.61117553710938 L 880.7484741210938 114.61107635498047 L 882.5801391601562 114.6109848022461 L 884.4118041992188 114.61089324951172 L 886.2434692382812 114.61079406738281 L 888.0751342773438 114.61071014404297 L 889.9067993164062 114.6106185913086 L 891.7384643554688 114.61053466796875 L 893.5701293945312 114.6104507446289 L 895.4017944335938 114.61036682128906 L 897.2334594726562 114.61028289794922 L 899.0651245117188 114.61019897460938 L 900.8967895507812 114.61012268066406 L 902.7284545898438 114.61004638671875 L 904.5601196289062 114.60997009277344 L 906.3917846679688 114.60990142822266 L 908.2234497070312 114.60982513427734 L 910.0551147460938 114.60975646972656 L 911.8867797851562 114.60968780517578 L 913.7184448242188 114.609619140625 L 915.5501098632812 114.60955047607422 L 917.3817749023438 114.60948944091797 L 919.2134399414062 114.60942077636719 L 921.0451049804688 114.60935974121094 L 922.8767700195312 114.60929870605469 L 924.7084350585938 114.60923767089844 L 926.5401000976562 114.60918426513672 L 928.3717651367188 114.60912322998047 L 930.2034301757812 114.60906982421875 L 932.0350952148438 114.6090087890625 L 933.8667602539062 114.60895538330078 L 935.6984252929688 114.60890197753906 L 937.5300903320312 114.60885620117188 L 939.3616943359375 114.60880279541016 L 941.193359375 114.60874938964844 L 943.0250244140625 114.60870361328125 L 944.856689453125 114.60865783691406 L 946.6883544921875 114.60861206054688 L 948.52001953125 114.60855865478516 L 950.3516845703125 114.6085205078125 L 952.183349609375 114.60847473144531 L 954.0150146484375 114.60842895507812 L 955.8466796875 114.60839080810547 L 957.6783447265625 114.60834503173828 L 959.510009765625 114.60830688476562 L 961.3416748046875 114.60826873779297 L 963.17333984375 114.60822296142578 L 965.0050048828125 114.60818481445312 L 966.836669921875 114.608154296875 L 968.6683349609375 114.60811614990234 L 970.5 114.60807800292969" stroke-opacity="1" stroke-linejoin="bevel" stroke-miterlimit="10" stroke-width="2" stroke-dasharray="" clip-path="url(#otWCCsToeJTO)"/><path fill="none" stroke="none"/><path fill="none" stroke="rgb(229,174,56)" paint-order="fill" d="M 56.5 118.48680877685547 L 970.5 118.48680877685547" stroke-opacity="1" stroke-linejoin="bevel" stroke-miterlimit="10" stroke-width="2" stroke-dasharray="" clip-path="url(#tDQuwXGyghyk)"/><path fill="none" stroke="none"/><path fill="none" stroke="rgb(109,144,79)" paint-order="fill" d="M 56.5 108.26203155517578 L 970.5 108.26203155517578" stroke-opacity="1" stroke-linejoin="bevel" stroke-miterlimit="10" stroke-width="2" stroke-dasharray="" clip-path="url(#mivulQEeIWgz)"/><path fill="none" stroke="rgb(0,0,0)" paint-order="fill" d="M 56.5 254.5 L 970.5 254.5" stroke-opacity="1" stroke-linejoin="bevel" stroke-miterlimit="10" stroke-dasharray=""/><path fill="none" stroke="rgb(0,0,0)" paint-order="fill" d="M 56.5 260.5 L 56.5 252.5 M 214.5 260.5 L 214.5 252.5 M 371.5 260.5 L 371.5 252.5 M 529.5 260.5 L 529.5 252.5 M 686.5 260.5 L 686.5 252.5 M 844.5 260.5 L 844.5 252.5" stroke-opacity="1" stroke-linejoin="bevel" stroke-miterlimit="10" stroke-dasharray=""/><path fill="none" stroke="rgb(0,0,0)" paint-order="fill" d="M 56.5 258.5 L 56.5 254.5 M 88.5 258.5 L 88.5 254.5 M 119.5 258.5 L 119.5 254.5 M 151.5 258.5 L 151.5 254.5 M 182.5 258.5 L 182.5 254.5 M 214.5 258.5 L 214.5 254.5 M 245.5 258.5 L 245.5 254.5 M 277.5 258.5 L 277.5 254.5 M 308.5 258.5 L 308.5 254.5 M 340.5 258.5 L 340.5 254.5 M 371.5 258.5 L 371.5 254.5 M 403.5 258.5 L 403.5 254.5 M 434.5 258.5 L 434.5 254.5 M 466.5 258.5 L 466.5 254.5 M 497.5 258.5 L 497.5 254.5 M 529.5 258.5 L 529.5 254.5 M 560.5 258.5 L 560.5 254.5 M 592.5 258.5 L 592.5 254.5 M 623.5 258.5 L 623.5 254.5 M 655.5 258.5 L 655.5 254.5 M 686.5 258.5 L 686.5 254.5 M 718.5 258.5 L 718.5 254.5 M 749.5 258.5 L 749.5 254.5 M 781.5 258.5 L 781.5 254.5 M 812.5 258.5 L 812.5 254.5 M 844.5 258.5 L 844.5 254.5 M 875.5 258.5 L 875.5 254.5 M 907.5 258.5 L 907.5 254.5 M 938.5 258.5 L 938.5 254.5 M 970.5 258.5 L 970.5 254.5" stroke-opacity="1" stroke-linejoin="bevel" stroke-miterlimit="10" stroke-dasharray=""/><text fill="rgb(68,68,68)" stroke="none" font-family="helvetica" font-size="11px" font-style="normal" font-weight="normal" text-decoration="normal" x="52.94166660308838" y="273" text-anchor="start" dominant-baseline="alphabetic" transform="matrix(1, 0, 0, 1, 0.5, 0.5)" fill-opacity="1">0</text><text fill="rgb(68,68,68)" stroke="none" font-family="helvetica" font-size="11px" font-style="normal" font-weight="normal" text-decoration="normal" x="210.5278787612915" y="273" text-anchor="start" dominant-baseline="alphabetic" transform="matrix(1, 0, 0, 1, 0.5, 0.5)" fill-opacity="1">5</text><text fill="rgb(68,68,68)" stroke="none" font-family="helvetica" font-size="11px" font-style="normal" font-weight="normal" text-decoration="normal" x="365.055757522583" y="273" text-anchor="start" dominant-baseline="alphabetic" transform="matrix(1, 0, 0, 1, 0.5, 0.5)" fill-opacity="1">10</text><text fill="rgb(68,68,68)" stroke="none" font-family="helvetica" font-size="11px" font-style="normal" font-weight="normal" text-decoration="normal" x="522.641939163208" y="273" text-anchor="start" dominant-baseline="alphabetic" transform="matrix(1, 0, 0, 1, 0.5, 0.5)" fill-opacity="1">15</text><text fill="rgb(68,68,68)" stroke="none" font-family="helvetica" font-size="11px" font-style="normal" font-weight="normal" text-decoration="normal" x="680.2281818389893" y="273" text-anchor="start" dominant-baseline="alphabetic" transform="matrix(1, 0, 0, 1, 0.5, 0.5)" fill-opacity="1">20</text><text fill="rgb(68,68,68)" stroke="none" font-family="helvetica" font-size="11px" font-style="normal" font-weight="normal" text-decoration="normal" x="837.8143634796143" y="273" text-anchor="start" dominant-baseline="alphabetic" transform="matrix(1, 0, 0, 1, 0.5, 0.5)" fill-opacity="1">25</text><text fill="rgb(68,68,68)" stroke="none" font-family="helvetica" font-size="13px" font-style="italic" font-weight="normal" text-decoration="normal" x="493.82500076293945" y="294" text-anchor="start" dominant-baseline="alphabetic" transform="matrix(1, 0, 0, 1, 0.5, 0.5)" fill-opacity="1">t (s)</text><path fill="none" stroke="rgb(0,0,0)" paint-order="fill" d="M 56.5 254.5 L 56.5 28.5" stroke-opacity="1" stroke-linejoin="bevel" stroke-miterlimit="10" stroke-dasharray=""/><path fill="none" stroke="rgb(0,0,0)" paint-order="fill" d="M 50.5 254.5 L 58.5 254.5 M 50.5 226.5 L 58.5 226.5 M 50.5 198.5 L 58.5 198.5 M 50.5 169.5 L 58.5 169.5 M 50.5 141.5 L 58.5 141.5 M 50.5 113.5 L 58.5 113.5 M 50.5 85.5 L 58.5 85.5 M 50.5 56.5 L 58.5 56.5 M 50.5 28.5 L 58.5 28.5" stroke-opacity="1" stroke-linejoin="bevel" stroke-miterlimit="10" stroke-dasharray=""/><path fill="none" stroke="rgb(0,0,0)" paint-order="fill" d="M 52.5 254.5 L 56.5 254.5 M 52.5 248.5 L 56.5 248.5 M 52.5 243.5 L 56.5 243.5 M 52.5 237.5 L 56.5 237.5 M 52.5 231.5 L 56.5 231.5 M 52.5 226.5 L 56.5 226.5 M 52.5 220.5 L 56.5 220.5 M 52.5 214.5 L 56.5 214.5 M 52.5 209.5 L 56.5 209.5 M 52.5 203.5 L 56.5 203.5 M 52.5 198.5 L 56.5 198.5 M 52.5 192.5 L 56.5 192.5 M 52.5 186.5 L 56.5 186.5 M 52.5 181.5 L 56.5 181.5 M 52.5 175.5 L 56.5 175.5 M 52.5 169.5 L 56.5 169.5 M 52.5 164.5 L 56.5 164.5 M 52.5 158.5 L 56.5 158.5 M 52.5 152.5 L 56.5 152.5 M 52.5 147.5 L 56.5 147.5 M 52.5 141.5 L 56.5 141.5 M 52.5 135.5 L 56.5 135.5 M 52.5 130.5 L 56.5 130.5 M 52.5 124.5 L 56.5 124.5 M 52.5 118.5 L 56.5 118.5 M 52.5 113.5 L 56.5 113.5 M 52.5 107.5 L 56.5 107.5 M 52.5 101.5 L 56.5 101.5 M 52.5 96.5 L 56.5 96.5 M 52.5 90.5 L 56.5 90.5 M 52.5 85.5 L 56.5 85.5 M 52.5 79.5 L 56.5 79.5 M 52.5 73.5 L 56.5 73.5 M 52.5 68.5 L 56.5 68.5 M 52.5 62.5 L 56.5 62.5 M 52.5 56.5 L 56.5 56.5 M 52.5 51.5 L 56.5 51.5 M 52.5 45.5 L 56.5 45.5 M 52.5 39.5 L 56.5 39.5 M 52.5 34.5 L 56.5 34.5 M 52.5 28.5 L 56.5 28.5" stroke-opacity="1" stroke-linejoin="bevel" stroke-miterlimit="10" stroke-dasharray=""/><text fill="rgb(68,68,68)" stroke="none" font-family="helvetica" font-size="11px" font-style="normal" font-weight="normal" text-decoration="normal" x="38.88333320617676" y="258" text-anchor="start" dominant-baseline="alphabetic" transform="matrix(1, 0, 0, 1, 0.5, 0.5)" fill-opacity="1">0</text><text fill="rgb(68,68,68)" stroke="none" font-family="helvetica" font-size="11px" font-style="normal" font-weight="normal" text-decoration="normal" x="26.649999618530273" y="229.75" text-anchor="start" dominant-baseline="alphabetic" transform="matrix(1, 0, 0, 1, 0.5, 0.5)" fill-opacity="1">100</text><text fill="rgb(68,68,68)" stroke="none" font-family="helvetica" font-size="11px" font-style="normal" font-weight="normal" text-decoration="normal" x="26.649999618530273" y="201.5" text-anchor="start" dominant-baseline="alphabetic" transform="matrix(1, 0, 0, 1, 0.5, 0.5)" fill-opacity="1">200</text><text fill="rgb(68,68,68)" stroke="none" font-family="helvetica" font-size="11px" font-style="normal" font-weight="normal" text-decoration="normal" x="26.649999618530273" y="173.25" text-anchor="start" dominant-baseline="alphabetic" transform="matrix(1, 0, 0, 1, 0.5, 0.5)" fill-opacity="1">300</text><text fill="rgb(68,68,68)" stroke="none" font-family="helvetica" font-size="11px" font-style="normal" font-weight="normal" text-decoration="normal" x="26.649999618530273" y="145" text-anchor="start" dominant-baseline="alphabetic" transform="matrix(1, 0, 0, 1, 0.5, 0.5)" fill-opacity="1">400</text><text fill="rgb(68,68,68)" stroke="none" font-family="helvetica" font-size="11px" font-style="normal" font-weight="normal" text-decoration="normal" x="26.649999618530273" y="116.75" text-anchor="start" dominant-baseline="alphabetic" transform="matrix(1, 0, 0, 1, 0.5, 0.5)" fill-opacity="1">500</text><text fill="rgb(68,68,68)" stroke="none" font-family="helvetica" font-size="11px" font-style="normal" font-weight="normal" text-decoration="normal" x="26.649999618530273" y="88.5" text-anchor="start" dominant-baseline="alphabetic" transform="matrix(1, 0, 0, 1, 0.5, 0.5)" fill-opacity="1">600</text><text fill="rgb(68,68,68)" stroke="none" font-family="helvetica" font-size="11px" font-style="normal" font-weight="normal" text-decoration="normal" x="26.649999618530273" y="60.25" text-anchor="start" dominant-baseline="alphabetic" transform="matrix(1, 0, 0, 1, 0.5, 0.5)" fill-opacity="1">700</text><text fill="rgb(68,68,68)" stroke="none" font-family="helvetica" font-size="11px" font-style="normal" font-weight="normal" text-decoration="normal" x="26.649999618530273" y="32" text-anchor="start" dominant-baseline="alphabetic" transform="matrix(1, 0, 0, 1, 0.5, 0.5)" fill-opacity="1">800</text><text fill="rgb(68,68,68)" stroke="none" font-family="helvetica" font-size="13px" font-style="italic" font-weight="normal" text-decoration="normal" x="-22.758333206176758" y="138" text-anchor="start" dominant-baseline="alphabetic" transform="matrix(6.123233995736766e-17, -1, 1, 6.123233995736766e-17, -121.85000038146973, 160.14999961853027)" fill-opacity="1">mean ToT (ns)</text><path fill="rgb(255,255,255)" stroke="rgb(229,229,229)" paint-order="fill" d="M 686.7333374023438 135.5 L 960.5 135.5 L 960.5 244.5 L 686.7333374023438 244.5 L 686.7333374023438 135.5" fill-opacity="0.9490196078431372" clip-path="url(#oxntROfHGfJg)" stroke-opacity="0.5019607843137255" stroke-linejoin="bevel" stroke-miterlimit="10" stroke-dasharray=""/><text fill="rgb(68,68,68)" stroke="none" font-family="helvetica" font-size="13px" font-style="normal" font-weight="normal" text-decoration="normal" x="721.2333374023438" y="155" text-anchor="start" dominant-baseline="central" transform="matrix(1, 0, 0, 1, 0.5, 0.5)" fill-opacity="1">mean ToT</text><path fill="none" stroke="rgb(48,162,218)" paint-order="fill" d="M 696.7333374023438 155.5 L 716.7333374023438 155.5" stroke-opacity="1" stroke-linejoin="bevel" stroke-miterlimit="10" stroke-width="2" stroke-dasharray="" clip-path="url(#oxntROfHGfJg)"/><text fill="rgb(68,68,68)" stroke="none" font-family="helvetica" font-size="13px" font-style="normal" font-weight="normal" text-decoration="normal" x="721.2333374023438" y="178" text-anchor="start" dominant-baseline="central" transform="matrix(1, 0, 0, 1, 0.5, 0.5)" fill-opacity="1">A(1-Be): A=495.2, B=0.3, c=0.4</text><path fill="none" stroke="rgb(252,79,48)" paint-order="fill" d="M 696.7333374023438 178.5 L 716.7333374023438 178.5" stroke-opacity="1" stroke-linejoin="bevel" stroke-miterlimit="10" stroke-width="2" stroke-dasharray="" clip-path="url(#oxntROfHGfJg)"/><text fill="rgb(68,68,68)" stroke="none" font-family="helvetica" font-size="13px" font-style="normal" font-weight="normal" text-decoration="normal" x="721.2333374023438" y="201" text-anchor="start" dominant-baseline="central" transform="matrix(1, 0, 0, 1, 0.5, 0.5)" fill-opacity="1">average mean ToT curve = 481.5</text><path fill="none" stroke="rgb(229,174,56)" paint-order="fill" d="M 696.7333374023438 201.5 L 716.7333374023438 201.5" stroke-opacity="1" stroke-linejoin="bevel" stroke-miterlimit="10" stroke-width="2" stroke-dasharray="" clip-path="url(#oxntROfHGfJg)"/><text fill="rgb(68,68,68)" stroke="none" font-family="helvetica" font-size="13px" font-style="normal" font-weight="normal" text-decoration="normal" x="721.2333374023438" y="224" text-anchor="start" dominant-baseline="central" transform="matrix(1, 0, 0, 1, 0.5, 0.5)" fill-opacity="1">mean of 1st events / fresh MCP = 517.7</text><path fill="none" stroke="rgb(109,144,79)" paint-order="fill" d="M 696.7333374023438 224.5 L 716.7333374023438 224.5" stroke-opacity="1" stroke-linejoin="bevel" stroke-miterlimit="10" stroke-width="2" stroke-dasharray="" clip-path="url(#oxntROfHGfJg)"/><path fill="none" stroke="none"/><text fill="rgb(68,68,68)" stroke="none" font-family="helvetica" font-size="13px" font-style="normal" font-weight="bold" text-decoration="normal" x="0" y="0" text-anchor="start" dominant-baseline="text-after-edge" transform="matrix(1, 0, 0, 1, 56.5, 23.5)" fill-opacity="1">pixel area (x=(107, 108), y=(145, 148)), 2 hits</text></svg>