<svg version="1.1" xmlns="http://www.w3.org/2000/svg" xmlns:xlink="http://www.w3.org/1999/xlink" width="1000" height="300"><defs><clipPath id="KvVmoqPxxAPA"><path fill="none" stroke="none" d="M 56.5 28.5 L 970.5 28.5 L 970.5 254.5 L 56.5 254.5 L 56.5 28.5"/></clipPath><clipPath id="REcimMoHWeiJ"><path fill="none" stroke="none" d="M 56.5 28.5 L 970.5 28.5 L 970.5 254.5 L 56.5 254.5 L 56.5 28.5"/></clipPath><clipPath id="pmtsQTTfEkRL"><path fill="none" stroke="none" d="M 56.5 28.5 L 970.5 28.5 L 970.5 254.5 L 56.5 254.5 L 56.5 28.5"/></clipPath><clipPath id="kehaxpMIFVQg"><path fill="none" stroke="none" d="M 56.5 28.5 L 970.5 28.5 L 970.5 254.5 L 56.5 254.5 L 56.5 28.5"/></clipPath><clipPath id="yGGfIBygayRm"><path fill="none" stroke="none" d="M 56.5 28.5 L 970.5 28.5 L 970.5 254.5 L 56.5 254.5 L 56.5 28.5"/></clipPath><clipPath id="qLLOPrauNXBh"><path fill="none" stroke="none" d="M 56.5 28.5 L 970.5 28.5 L 970.5 254.5 L 56.5 254.5 L 56.5 28.5"/></clipPath><clipPath id="zZTolXilVqPH"><path fill="none" stroke="none" d="M 56.5 28.5 L 970.5 28.5 L 970.5 254.5 L 56.5 254.5 L 56.5 28.5"/></clipPath></defs><path fill="rgb(255,255,255)" stroke="none" paint-order="stroke" d="M 0.5 0.5 L 1000.5 0.5 L 1000.5 300.5 L 0.5 300.5 L 0.5 0.5" fill-opacity="1"/><rect fill="#FFFFFF" stroke="none" x="56" y="28" width="914" height="226" transform="matrix(1, 0, 0, 1, 0.5, 0.5)"/><path fill="rgb(255,255,255)" stroke="none" paint-order="stroke" d="M 56.5 28.5 L 970.5 28.5 L 970.5 254.5 L 56.5 254.5 L 56.5 28.5" fill-opacity="1"/><path fill="none" stroke="rgb(229,229,229)" paint-order="fill" d="M 56.5 28.5 L 970.5 28.5 L 970.5 254.5 L 56.5 254.5 L 56.5 28.5" stroke-opacity="1" stroke-linejoin="bevel" stroke-miterlimit="10" stroke-dasharray=""/><path fill="none" stroke="rgb(0,0,0)" paint-order="fill" d="M 82.36792755126953 167.56602478027344 L 82.36792755126953 143.6318817138672" stroke-opacity="1" stroke-linejoin="bevel" stroke-miterlimit="10" stroke-dasharray="" clip-path="url(#pmtsQTTfEkRL)"/><path fill="none" stroke="rgb(0,0,0)" paint-order="fill" d="M 112.1011734008789 116.547119140625 L 112.1011734008789 85.18321990966797" stroke-opacity="1" stroke-linejoin="bevel" stroke-miterlimit="10" stroke-dasharray="" clip-path="url(#pmtsQTTfEkRL)"/><path fill="none" stroke="rgb(0,0,0)" paint-order="fill" d="M 141.83441162109375 112.42825317382812 L 141.83441162109375 80.544677734375" stroke-opacity="1" stroke-linejoin="bevel" stroke-miterlimit="10" stroke-dasharray="" clip-path="url(#pmtsQTTfEkRL)"/><path fill="none" stroke="rgb(0,0,0)" paint-order="fill" d="M 171.56765747070312 118.8988037109375 L 171.56765747070312 87.83576202392578" stroke-opacity="1" stroke-linejoin="bevel" stroke-miterlimit="10" stroke-dasharray="" clip-path="url(#pmtsQTTfEkRL)"/><path fill="none" stroke="rgb(0,0,0)" paint-order="fill" d="M 201.3009033203125 117.42916870117188 L 201.3009033203125 86.17774963378906" stroke-opacity="1" stroke-linejoin="bevel" stroke-miterlimit="10" stroke-dasharray="" clip-path="url(#pmtsQTTfEkRL)"/><path fill="none" stroke="rgb(0,0,0)" paint-order="fill" d="M 231.03416442871094 118.8988037109375 L 231.03416442871094 87.83576202392578" stroke-opacity="1" stroke-linejoin="bevel" stroke-miterlimit="10" stroke-dasharray="" clip-path="url(#pmtsQTTfEkRL)"/><path fill="none" stroke="rgb(0,0,0)" paint-order="fill" d="M 260.76739501953125 122.4235610961914 L 260.76739501953125 91.81735229492188" stroke-opacity="1" stroke-linejoin="bevel" stroke-miterlimit="10" stroke-dasharray="" clip-path="url(#pmtsQTTfEkRL)"/><path fill="none" stroke="rgb(0,0,0)" paint-order="fill" d="M 290.5006408691406 131.51275634765625 L 290.5006408691406 102.11955261230469" stroke-opacity="1" stroke-linejoin="bevel" stroke-miterlimit="10" stroke-dasharray="" clip-path="url(#pmtsQTTfEkRL)"/><path fill="none" stroke="rgb(0,0,0)" paint-order="fill" d="M 320.23388671875 125.94485473632812 L 320.23388671875 95.80240631103516" stroke-opacity="1" stroke-linejoin="bevel" stroke-miterlimit="10" stroke-dasharray="" clip-path="url(#pmtsQTTfEkRL)"/><path fill="none" stroke="rgb(0,0,0)" paint-order="fill" d="M 349.9671325683594 132.9763946533203 L 349.9671325683594 103.78356170654297" stroke-opacity="1" stroke-linejoin="bevel" stroke-miterlimit="10" stroke-dasharray="" clip-path="url(#pmtsQTTfEkRL)"/><path fill="none" stroke="rgb(0,0,0)" paint-order="fill" d="M 379.70037841796875 139.99197387695312 L 379.70037841796875 111.78068542480469" stroke-opacity="1" stroke-linejoin="bevel" stroke-miterlimit="10" stroke-dasharray="" clip-path="url(#pmtsQTTfEkRL)"/><path fill="none" stroke="rgb(0,0,0)" paint-order="fill" d="M 409.4336242675781 153.9679412841797 L 409.4336242675781 127.83010864257812" stroke-opacity="1" stroke-linejoin="bevel" stroke-miterlimit="10" stroke-dasharray="" clip-path="url(#pmtsQTTfEkRL)"/><path fill="none" stroke="rgb(0,0,0)" paint-order="fill" d="M 439.1668701171875 167.56602478027344 L 439.1668701171875 143.6318817138672" stroke-opacity="1" stroke-linejoin="bevel" stroke-miterlimit="10" stroke-dasharray="" clip-path="url(#pmtsQTTfEkRL)"/><path fill="none" stroke="rgb(0,0,0)" paint-order="fill" d="M 468.9001159667969 150.19073486328125 L 468.9001159667969 123.4754409790039" stroke-opacity="1" stroke-linejoin="bevel" stroke-miterlimit="10" stroke-dasharray="" clip-path="url(#pmtsQTTfEkRL)"/><path fill="none" stroke="rgb(0,0,0)" paint-order="fill" d="M 498.63336181640625 169.87033081054688 L 498.63336181640625 146.33181762695312" stroke-opacity="1" stroke-linejoin="bevel" stroke-miterlimit="10" stroke-dasharray="" clip-path="url(#pmtsQTTfEkRL)"/><path fill="none" stroke="rgb(0,0,0)" paint-order="fill" d="M 528.3666381835938 171.30880737304688 L 528.3666381835938 148.02098083496094" stroke-opacity="1" stroke-linejoin="bevel" stroke-miterlimit="10" stroke-dasharray="" clip-path="url(#pmtsQTTfEkRL)"/><path fill="none" stroke="rgb(0,0,0)" paint-order="fill" d="M 558.099853515625 174.181640625 L 558.099853515625 151.4034423828125" stroke-opacity="1" stroke-linejoin="bevel" stroke-miterlimit="10" stroke-dasharray="" clip-path="url(#pmtsQTTfEkRL)"/><path fill="none" stroke="rgb(0,0,0)" paint-order="fill" d="M 587.8331298828125 178.47979736328125 L 587.8331298828125 156.4882049560547" stroke-opacity="1" stroke-linejoin="bevel" stroke-miterlimit="10" stroke-dasharray="" clip-path="url(#pmtsQTTfEkRL)"/><path fill="none" stroke="rgb(0,0,0)" paint-order="fill" d="M 617.5663452148438 180.480712890625 L 617.5663452148438 158.86599731445312" stroke-opacity="1" stroke-linejoin="bevel" stroke-miterlimit="10" stroke-dasharray="" clip-path="url(#pmtsQTTfEkRL)"/><path fill="none" stroke="rgb(0,0,0)" paint-order="fill" d="M 647.2996215820312 193.81857299804688 L 647.2996215820312 174.92800903320312" stroke-opacity="1" stroke-linejoin="bevel" stroke-miterlimit="10" stroke-dasharray="" clip-path="url(#pmtsQTTfEkRL)"/><path fill="none" stroke="rgb(0,0,0)" paint-order="fill" d="M 677.0328369140625 187.8818817138672 L 677.0328369140625 167.7285919189453" stroke-opacity="1" stroke-linejoin="bevel" stroke-miterlimit="10" stroke-dasharray="" clip-path="url(#pmtsQTTfEkRL)"/><path fill="none" stroke="rgb(0,0,0)" paint-order="fill" d="M 706.76611328125 202.49623107910156 L 706.76611328125 185.64173889160156" stroke-opacity="1" stroke-linejoin="bevel" stroke-miterlimit="10" stroke-dasharray="" clip-path="url(#pmtsQTTfEkRL)"/><path fill="none" stroke="rgb(0,0,0)" paint-order="fill" d="M 736.4993286132812 206.09661865234375 L 736.4993286132812 190.17324829101562" stroke-opacity="1" stroke-linejoin="bevel" stroke-miterlimit="10" stroke-dasharray="" clip-path="url(#pmtsQTTfEkRL)"/><path fill="none" stroke="rgb(0,0,0)" paint-order="fill" d="M 766.2326049804688 212.3917236328125 L 766.2326049804688 198.26528930664062" stroke-opacity="1" stroke-linejoin="bevel" stroke-miterlimit="10" stroke-dasharray="" clip-path="url(#pmtsQTTfEkRL)"/><path fill="none" stroke="rgb(0,0,0)" paint-order="fill" d="M 795.9658203125 212.9336700439453 L 795.9658203125 198.9744110107422" stroke-opacity="1" stroke-linejoin="bevel" stroke-miterlimit="10" stroke-dasharray="" clip-path="url(#pmtsQTTfEkRL)"/><path fill="none" stroke="rgb(0,0,0)" paint-order="fill" d="M 825.6990966796875 219.8699493408203 L 825.6990966796875 208.3018798828125" stroke-opacity="1" stroke-linejoin="bevel" stroke-miterlimit="10" stroke-dasharray="" clip-path="url(#pmtsQTTfEkRL)"/><path fill="none" stroke="rgb(0,0,0)" paint-order="fill" d="M 855.4323120117188 222.20858764648438 L 855.4323120117188 211.59300231933594" stroke-opacity="1" stroke-linejoin="bevel" stroke-miterlimit="10" stroke-dasharray="" clip-path="url(#pmtsQTTfEkRL)"/><path fill="none" stroke="rgb(0,0,0)" paint-order="fill" d="M 885.1655883789062 226.2388153076172 L 885.1655883789062 217.5712432861328" stroke-opacity="1" stroke-linejoin="bevel" stroke-miterlimit="10" stroke-dasharray="" clip-path="url(#pmtsQTTfEkRL)"/><path fill="none" stroke="rgb(0,0,0)" paint-order="fill" d="M 914.8988037109375 232.1946563720703 L 914.8988037109375 229.1302032470703" stroke-opacity="1" stroke-linejoin="bevel" stroke-miterlimit="10" stroke-dasharray="" clip-path="url(#pmtsQTTfEkRL)"/><path fill="none" stroke="rgb(0,0,0)" paint-order="fill" d="M 944.632080078125 235.6666717529297 L 944.632080078125 231.9134979248047" stroke-opacity="1" stroke-linejoin="bevel" stroke-miterlimit="10" stroke-dasharray="" clip-path="url(#pmtsQTTfEkRL)"/><path fill="none" stroke="rgb(0,0,0)" paint-order="fill" d="M 77.36792755126953 167.56602478027344 L 87.36792755126953 167.56602478027344" stroke-opacity="1" stroke-linejoin="bevel" stroke-miterlimit="10" stroke-dasharray="" clip-path="url(#pmtsQTTfEkRL)"/><path fill="none" stroke="rgb(0,0,0)" paint-order="fill" d="M 107.1011734008789 116.547119140625 L 117.1011734008789 116.547119140625" stroke-opacity="1" stroke-linejoin="bevel" stroke-miterlimit="10" stroke-dasharray="" clip-path="url(#pmtsQTTfEkRL)"/><path fill="none" stroke="rgb(0,0,0)" paint-order="fill" d="M 136.83441162109375 112.42825317382812 L 146.83441162109375 112.42825317382812" stroke-opacity="1" stroke-linejoin="bevel" stroke-miterlimit="10" stroke-dasharray="" clip-path="url(#pmtsQTTfEkRL)"/><path fill="none" stroke="rgb(0,0,0)" paint-order="fill" d="M 166.56765747070312 118.8988037109375 L 176.56765747070312 118.8988037109375" stroke-opacity="1" stroke-linejoin="bevel" stroke-miterlimit="10" stroke-dasharray="" clip-path="url(#pmtsQTTfEkRL)"/><path fill="none" stroke="rgb(0,0,0)" paint-order="fill" d="M 196.3009033203125 117.42916870117188 L 206.3009033203125 117.42916870117188" stroke-opacity="1" stroke-linejoin="bevel" stroke-miterlimit="10" stroke-dasharray="" clip-path="url(#pmtsQTTfEkRL)"/><path fill="none" stroke="rgb(0,0,0)" paint-order="fill" d="M 226.03416442871094 118.8988037109375 L 236.03416442871094 118.8988037109375" stroke-opacity="1" stroke-linejoin="bevel" stroke-miterlimit="10" stroke-dasharray="" clip-path="url(#pmtsQTTfEkRL)"/><path fill="none" stroke="rgb(0,0,0)" paint-order="fill" d="M 255.76739501953125 122.4235610961914 L 265.76739501953125 122.4235610961914" stroke-opacity="1" stroke-linejoin="bevel" stroke-miterlimit="10" stroke-dasharray="" clip-path="url(#pmtsQTTfEkRL)"/><path fill="none" stroke="rgb(0,0,0)" paint-order="fill" d="M 285.5006408691406 131.51275634765625 L 295.5006408691406 131.51275634765625" stroke-opacity="1" stroke-linejoin="bevel" stroke-miterlimit="10" stroke-dasharray="" clip-path="url(#pmtsQTTfEkRL)"/><path fill="none" stroke="rgb(0,0,0)" paint-order="fill" d="M 315.23388671875 125.94485473632812 L 325.23388671875 125.94485473632812" stroke-opacity="1" stroke-linejoin="bevel" stroke-miterlimit="10" stroke-dasharray="" clip-path="url(#pmtsQTTfEkRL)"/><path fill="none" stroke="rgb(0,0,0)" paint-order="fill" d="M 344.9671325683594 132.9763946533203 L 354.9671325683594 132.9763946533203" stroke-opacity="1" stroke-linejoin="bevel" stroke-miterlimit="10" stroke-dasharray="" clip-path="url(#pmtsQTTfEkRL)"/><path fill="none" stroke="rgb(0,0,0)" paint-order="fill" d="M 374.70037841796875 139.99197387695312 L 384.70037841796875 139.99197387695312" stroke-opacity="1" stroke-linejoin="bevel" stroke-miterlimit="10" stroke-dasharray="" clip-path="url(#pmtsQTTfEkRL)"/><path fill="none" stroke="rgb(0,0,0)" paint-order="fill" d="M 404.4336242675781 153.9679412841797 L 414.4336242675781 153.9679412841797" stroke-opacity="1" stroke-linejoin="bevel" stroke-miterlimit="10" stroke-dasharray="" clip-path="url(#pmtsQTTfEkRL)"/><path fill="none" stroke="rgb(0,0,0)" paint-order="fill" d="M 434.1668701171875 167.56602478027344 L 444.1668701171875 167.56602478027344" stroke-opacity="1" stroke-linejoin="bevel" stroke-miterlimit="10" stroke-dasharray="" clip-path="url(#pmtsQTTfEkRL)"/><path fill="none" stroke="rgb(0,0,0)" paint-order="fill" d="M 463.9001159667969 150.19073486328125 L 473.9001159667969 150.19073486328125" stroke-opacity="1" stroke-linejoin="bevel" stroke-miterlimit="10" stroke-dasharray="" clip-path="url(#pmtsQTTfEkRL)"/><path fill="none" stroke="rgb(0,0,0)" paint-order="fill" d="M 493.63336181640625 169.87033081054688 L 503.63336181640625 169.87033081054688" stroke-opacity="1" stroke-linejoin="bevel" stroke-miterlimit="10" stroke-dasharray="" clip-path="url(#pmtsQTTfEkRL)"/><path fill="none" stroke="rgb(0,0,0)" paint-order="fill" d="M 523.3666381835938 171.30880737304688 L 533.3666381835938 171.30880737304688" stroke-opacity="1" stroke-linejoin="bevel" stroke-miterlimit="10" stroke-dasharray="" clip-path="url(#pmtsQTTfEkRL)"/><path fill="none" stroke="rgb(0,0,0)" paint-order="fill" d="M 553.099853515625 174.181640625 L 563.099853515625 174.181640625" stroke-opacity="1" stroke-linejoin="bevel" stroke-miterlimit="10" stroke-dasharray="" clip-path="url(#pmtsQTTfEkRL)"/><path fill="none" stroke="rgb(0,0,0)" paint-order="fill" d="M 582.8331298828125 178.47979736328125 L 592.8331298828125 178.47979736328125" stroke-opacity="1" stroke-linejoin="bevel" stroke-miterlimit="10" stroke-dasharray="" clip-path="url(#pmtsQTTfEkRL)"/><path fill="none" stroke="rgb(0,0,0)" paint-order="fill" d="M 612.5663452148438 180.480712890625 L 622.5663452148438 180.480712890625" stroke-opacity="1" stroke-linejoin="bevel" stroke-miterlimit="10" stroke-dasharray="" clip-path="url(#pmtsQTTfEkRL)"/><path fill="none" stroke="rgb(0,0,0)" paint-order="fill" d="M 642.2996215820312 193.81857299804688 L 652.2996215820312 193.81857299804688" stroke-opacity="1" stroke-linejoin="bevel" stroke-miterlimit="10" stroke-dasharray="" clip-path="url(#pmtsQTTfEkRL)"/><path fill="none" stroke="rgb(0,0,0)" paint-order="fill" d="M 672.0328369140625 187.8818817138672 L 682.0328369140625 187.8818817138672" stroke-opacity="1" stroke-linejoin="bevel" stroke-miterlimit="10" stroke-dasharray="" clip-path="url(#pmtsQTTfEkRL)"/><path fill="none" stroke="rgb(0,0,0)" paint-order="fill" d="M 701.76611328125 202.49623107910156 L 711.76611328125 202.49623107910156" stroke-opacity="1" stroke-linejoin="bevel" stroke-miterlimit="10" stroke-dasharray="" clip-path="url(#pmtsQTTfEkRL)"/><path fill="none" stroke="rgb(0,0,0)" paint-order="fill" d="M 731.4993286132812 206.09661865234375 L 741.4993286132812 206.09661865234375" stroke-opacity="1" stroke-linejoin="bevel" stroke-miterlimit="10" stroke-dasharray="" clip-path="url(#pmtsQTTfEkRL)"/><path fill="none" stroke="rgb(0,0,0)" paint-order="fill" d="M 761.2326049804688 212.3917236328125 L 771.2326049804688 212.3917236328125" stroke-opacity="1" stroke-linejoin="bevel" stroke-miterlimit="10" stroke-dasharray="" clip-path="url(#pmtsQTTfEkRL)"/><path fill="none" stroke="rgb(0,0,0)" paint-order="fill" d="M 790.9658203125 212.9336700439453 L 800.9658203125 212.9336700439453" stroke-opacity="1" stroke-linejoin="bevel" stroke-miterlimit="10" stroke-dasharray="" clip-path="url(#pmtsQTTfEkRL)"/><path fill="none" stroke="rgb(0,0,0)" paint-order="fill" d="M 820.6990966796875 219.8699493408203 L 830.6990966796875 219.8699493408203" stroke-opacity="1" stroke-linejoin="bevel" stroke-miterlimit="10" stroke-dasharray="" clip-path="url(#pmtsQTTfEkRL)"/><path fill="none" stroke="rgb(0,0,0)" paint-order="fill" d="M 850.4323120117188 222.20858764648438 L 860.4323120117188 222.20858764648438" stroke-opacity="1" stroke-linejoin="bevel" stroke-miterlimit="10" stroke-dasharray="" clip-path="url(#pmtsQTTfEkRL)"/><path fill="none" stroke="rgb(0,0,0)" paint-order="fill" d="M 880.1655883789062 226.2388153076172 L 890.1655883789062 226.2388153076172" stroke-opacity="1" stroke-linejoin="bevel" stroke-miterlimit="10" stroke-dasharray="" clip-path="url(#pmtsQTTfEkRL)"/><path fill="none" stroke="rgb(0,0,0)" paint-order="fill" d="M 909.8988037109375 232.1946563720703 L 919.8988037109375 232.1946563720703" stroke-opacity="1" stroke-linejoin="bevel" stroke-miterlimit="10" stroke-dasharray="" clip-path="url(#pmtsQTTfEkRL)"/><path fill="none" stroke="rgb(0,0,0)" paint-order="fill" d="M 939.632080078125 235.6666717529297 L 949.632080078125 235.6666717529297" stroke-opacity="1" stroke-linejoin="bevel" stroke-miterlimit="10" stroke-dasharray="" clip-path="url(#pmtsQTTfEkRL)"/><path fill="none" stroke="rgb(0,0,0)" paint-order="fill" d="M 87.36792755126953 143.6318817138672 L 77.36792755126953 143.6318817138672" stroke-opacity="1" stroke-linejoin="bevel" stroke-miterlimit="10" stroke-dasharray="" clip-path="url(#pmtsQTTfEkRL)"/><path fill="none" stroke="rgb(0,0,0)" paint-order="fill" d="M 117.1011734008789 85.18321990966797 L 107.1011734008789 85.18321990966797" stroke-opacity="1" stroke-linejoin="bevel" stroke-miterlimit="10" stroke-dasharray="" clip-path="url(#pmtsQTTfEkRL)"/><path fill="none" stroke="rgb(0,0,0)" paint-order="fill" d="M 146.83441162109375 80.544677734375 L 136.83441162109375 80.544677734375" stroke-opacity="1" stroke-linejoin="bevel" stroke-miterlimit="10" stroke-dasharray="" clip-path="url(#pmtsQTTfEkRL)"/><path fill="none" stroke="rgb(0,0,0)" paint-order="fill" d="M 176.56765747070312 87.83576202392578 L 166.56765747070312 87.83576202392578" stroke-opacity="1" stroke-linejoin="bevel" stroke-miterlimit="10" stroke-dasharray="" clip-path="url(#pmtsQTTfEkRL)"/><path fill="none" stroke="rgb(0,0,0)" paint-order="fill" d="M 206.3009033203125 86.17774963378906 L 196.3009033203125 86.17774963378906" stroke-opacity="1" stroke-linejoin="bevel" stroke-miterlimit="10" stroke-dasharray="" clip-path="url(#pmtsQTTfEkRL)"/><path fill="none" stroke="rgb(0,0,0)" paint-order="fill" d="M 236.03416442871094 87.83576202392578 L 226.03416442871094 87.83576202392578" stroke-opacity="1" stroke-linejoin="bevel" stroke-miterlimit="10" stroke-dasharray="" clip-path="url(#pmtsQTTfEkRL)"/><path fill="none" stroke="rgb(0,0,0)" paint-order="fill" d="M 265.76739501953125 91.81735229492188 L 255.76739501953125 91.81735229492188" stroke-opacity="1" stroke-linejoin="bevel" stroke-miterlimit="10" stroke-dasharray="" clip-path="url(#pmtsQTTfEkRL)"/><path fill="none" stroke="rgb(0,0,0)" paint-order="fill" d="M 295.5006408691406 102.11955261230469 L 285.5006408691406 102.11955261230469" stroke-opacity="1" stroke-linejoin="bevel" stroke-miterlimit="10" stroke-dasharray="" clip-path="url(#pmtsQTTfEkRL)"/><path fill="none" stroke="rgb(0,0,0)" paint-order="fill" d="M 325.23388671875 95.80240631103516 L 315.23388671875 95.80240631103516" stroke-opacity="1" stroke-linejoin="bevel" stroke-miterlimit="10" stroke-dasharray="" clip-path="url(#pmtsQTTfEkRL)"/><path fill="none" stroke="rgb(0,0,0)" paint-order="fill" d="M 354.9671325683594 103.78356170654297 L 344.9671325683594 103.78356170654297" stroke-opacity="1" stroke-linejoin="bevel" stroke-miterlimit="10" stroke-dasharray="" clip-path="url(#pmtsQTTfEkRL)"/><path fill="none" stroke="rgb(0,0,0)" paint-order="fill" d="M 384.70037841796875 111.78068542480469 L 374.70037841796875 111.78068542480469" stroke-opacity="1" stroke-linejoin="bevel" stroke-miterlimit="10" stroke-dasharray="" clip-path="url(#pmtsQTTfEkRL)"/><path fill="none" stroke="rgb(0,0,0)" paint-order="fill" d="M 414.4336242675781 127.83010864257812 L 404.4336242675781 127.83010864257812" stroke-opacity="1" stroke-linejoin="bevel" stroke-miterlimit="10" stroke-dasharray="" clip-path="url(#pmtsQTTfEkRL)"/><path fill="none" stroke="rgb(0,0,0)" paint-order="fill" d="M 444.1668701171875 143.6318817138672 L 434.1668701171875 143.6318817138672" stroke-opacity="1" stroke-linejoin="bevel" stroke-miterlimit="10" stroke-dasharray="" clip-path="url(#pmtsQTTfEkRL)"/><path fill="none" stroke="rgb(0,0,0)" paint-order="fill" d="M 473.9001159667969 123.4754409790039 L 463.9001159667969 123.4754409790039" stroke-opacity="1" stroke-linejoin="bevel" stroke-miterlimit="10" stroke-dasharray="" clip-path="url(#pmtsQTTfEkRL)"/><path fill="none" stroke="rgb(0,0,0)" paint-order="fill" d="M 503.63336181640625 146.33181762695312 L 493.63336181640625 146.33181762695312" stroke-opacity="1" stroke-linejoin="bevel" stroke-miterlimit="10" stroke-dasharray="" clip-path="url(#pmtsQTTfEkRL)"/><path fill="none" stroke="rgb(0,0,0)" paint-order="fill" d="M 533.3666381835938 148.02098083496094 L 523.3666381835938 148.02098083496094" stroke-opacity="1" stroke-linejoin="bevel" stroke-miterlimit="10" stroke-dasharray="" clip-path="url(#pmtsQTTfEkRL)"/><path fill="none" stroke="rgb(0,0,0)" paint-order="fill" d="M 563.099853515625 151.4034423828125 L 553.099853515625 151.4034423828125" stroke-opacity="1" stroke-linejoin="bevel" stroke-miterlimit="10" stroke-dasharray="" clip-path="url(#pmtsQTTfEkRL)"/><path fill="none" stroke="rgb(0,0,0)" paint-order="fill" d="M 592.8331298828125 156.4882049560547 L 582.8331298828125 156.4882049560547" stroke-opacity="1" stroke-linejoin="bevel" stroke-miterlimit="10" stroke-dasharray="" clip-path="url(#pmtsQTTfEkRL)"/><path fill="none" stroke="rgb(0,0,0)" paint-order="fill" d="M 622.5663452148438 158.86599731445312 L 612.5663452148438 158.86599731445312" stroke-opacity="1" stroke-linejoin="bevel" stroke-miterlimit="10" stroke-dasharray="" clip-path="url(#pmtsQTTfEkRL)"/><path fill="none" stroke="rgb(0,0,0)" paint-order="fill" d="M 652.2996215820312 174.92800903320312 L 642.2996215820312 174.92800903320312" stroke-opacity="1" stroke-linejoin="bevel" stroke-miterlimit="10" stroke-dasharray="" clip-path="url(#pmtsQTTfEkRL)"/><path fill="none" stroke="rgb(0,0,0)" paint-order="fill" d="M 682.0328369140625 167.7285919189453 L 672.0328369140625 167.7285919189453" stroke-opacity="1" stroke-linejoin="bevel" stroke-miterlimit="10" stroke-dasharray="" clip-path="url(#pmtsQTTfEkRL)"/><path fill="none" stroke="rgb(0,0,0)" paint-order="fill" d="M 711.76611328125 185.64173889160156 L 701.76611328125 185.64173889160156" stroke-opacity="1" stroke-linejoin="bevel" stroke-miterlimit="10" stroke-dasharray="" clip-path="url(#pmtsQTTfEkRL)"/><path fill="none" stroke="rgb(0,0,0)" paint-order="fill" d="M 741.4993286132812 190.17324829101562 L 731.4993286132812 190.17324829101562" stroke-opacity="1" stroke-linejoin="bevel" stroke-miterlimit="10" stroke-dasharray="" clip-path="url(#pmtsQTTfEkRL)"/><path fill="none" stroke="rgb(0,0,0)" paint-order="fill" d="M 771.2326049804688 198.26528930664062 L 761.2326049804688 198.26528930664062" stroke-opacity="1" stroke-linejoin="bevel" stroke-miterlimit="10" stroke-dasharray="" clip-path="url(#pmtsQTTfEkRL)"/><path fill="none" stroke="rgb(0,0,0)" paint-order="fill" d="M 800.9658203125 198.9744110107422 L 790.9658203125 198.9744110107422" stroke-opacity="1" stroke-linejoin="bevel" stroke-miterlimit="10" stroke-dasharray="" clip-path="url(#pmtsQTTfEkRL)"/><path fill="none" stroke="rgb(0,0,0)" paint-order="fill" d="M 830.6990966796875 208.3018798828125 L 820.6990966796875 208.3018798828125" stroke-opacity="1" stroke-linejoin="bevel" stroke-miterlimit="10" stroke-dasharray="" clip-path="url(#pmtsQTTfEkRL)"/><path fill="none" stroke="rgb(0,0,0)" paint-order="fill" d="M 860.4323120117188 211.59300231933594 L 850.4323120117188 211.59300231933594" stroke-opacity="1" stroke-linejoin="bevel" stroke-miterlimit="10" stroke-dasharray="" clip-path="url(#pmtsQTTfEkRL)"/><path fill="none" stroke="rgb(0,0,0)" paint-order="fill" d="M 890.1655883789062 217.5712432861328 L 880.1655883789062 217.5712432861328" stroke-opacity="1" stroke-linejoin="bevel" stroke-miterlimit="10" stroke-dasharray="" clip-path="url(#pmtsQTTfEkRL)"/><path fill="none" stroke="rgb(0,0,0)" paint-order="fill" d="M 919.8988037109375 229.1302032470703 L 909.8988037109375 229.1302032470703" stroke-opacity="1" stroke-linejoin="bevel" stroke-miterlimit="10" stroke-dasharray="" clip-path="url(#pmtsQTTfEkRL)"/><path fill="none" stroke="rgb(0,0,0)" paint-order="fill" d="M 949.632080078125 231.9134979248047 L 939.632080078125 231.9134979248047" stroke-opacity="1" stroke-linejoin="bevel" stroke-miterlimit="10" stroke-dasharray="" clip-path="url(#pmtsQTTfEkRL)"/><path fill="none" stroke="none"/><path fill="rgb(255,0,0)" stroke="rgb(255,0,0)" paint-order="fill" d="M 84.86792755126953 155.5989532470703 A 2.5 2.5 0 1 1 84.86792630126963 155.59645324748698" fill-opacity="1" clip-path="url(#kehaxpMIFVQg)" stroke-opacity="1" stroke-linejoin="bevel" stroke-miterlimit="10" stroke-dasharray=""/><path fill="rgb(255,0,0)" stroke="rgb(255,0,0)" paint-order="fill" d="M 114.6011734008789 100.86516571044922 A 2.5 2.5 0 1 1 114.60117215087901 100.86266571086588" fill-opacity="1" clip-path="url(#kehaxpMIFVQg)" stroke-opacity="1" stroke-linejoin="bevel" stroke-miterlimit="10" stroke-dasharray=""/><path fill="rgb(255,0,0)" stroke="rgb(255,0,0)" paint-order="fill" d="M 144.33441162109375 96.48646545410156 A 2.5 2.5 0 1 1 144.33441037109387 96.48396545451823" fill-opacity="1" clip-path="url(#kehaxpMIFVQg)" stroke-opacity="1" stroke-linejoin="bevel" stroke-miterlimit="10" stroke-dasharray=""/><path fill="rgb(255,0,0)" stroke="rgb(255,0,0)" paint-order="fill" d="M 174.06765747070312 103.3672866821289 A 2.5 2.5 0 1 1 174.06765622070324 103.36478668254557" fill-opacity="1" clip-path="url(#kehaxpMIFVQg)" stroke-opacity="1" stroke-linejoin="bevel" stroke-miterlimit="10" stroke-dasharray=""/><path fill="rgb(255,0,0)" stroke="rgb(255,0,0)" paint-order="fill" d="M 203.8009033203125 101.80345916748047 A 2.5 2.5 0 1 1 203.80090207031262 101.80095916789713" fill-opacity="1" clip-path="url(#kehaxpMIFVQg)" stroke-opacity="1" stroke-linejoin="bevel" stroke-miterlimit="10" stroke-dasharray=""/><path fill="rgb(255,0,0)" stroke="rgb(255,0,0)" paint-order="fill" d="M 233.53416442871094 103.3672866821289 A 2.5 2.5 0 1 1 233.53416317871105 103.36478668254557" fill-opacity="1" clip-path="url(#kehaxpMIFVQg)" stroke-opacity="1" stroke-linejoin="bevel" stroke-miterlimit="10" stroke-dasharray=""/><path fill="rgb(255,0,0)" stroke="rgb(255,0,0)" paint-order="fill" d="M 263.26739501953125 107.1204605102539 A 2.5 2.5 0 1 1 263.26739376953134 107.11796051067057" fill-opacity="1" clip-path="url(#kehaxpMIFVQg)" stroke-opacity="1" stroke-linejoin="bevel" stroke-miterlimit="10" stroke-dasharray=""/><path fill="rgb(255,0,0)" stroke="rgb(255,0,0)" paint-order="fill" d="M 293.0006408691406 116.81615447998047 A 2.5 2.5 0 1 1 293.0006396191407 116.81365448039713" fill-opacity="1" clip-path="url(#kehaxpMIFVQg)" stroke-opacity="1" stroke-linejoin="bevel" stroke-miterlimit="10" stroke-dasharray=""/><path fill="rgb(255,0,0)" stroke="rgb(255,0,0)" paint-order="fill" d="M 322.73388671875 110.8736343383789 A 2.5 2.5 0 1 1 322.7338854687501 110.87113433879557" fill-opacity="1" clip-path="url(#kehaxpMIFVQg)" stroke-opacity="1" stroke-linejoin="bevel" stroke-miterlimit="10" stroke-dasharray=""/><path fill="rgb(255,0,0)" stroke="rgb(255,0,0)" paint-order="fill" d="M 352.4671325683594 118.3799819946289 A 2.5 2.5 0 1 1 352.46713131835946 118.37748199504557" fill-opacity="1" clip-path="url(#kehaxpMIFVQg)" stroke-opacity="1" stroke-linejoin="bevel" stroke-miterlimit="10" stroke-dasharray=""/><path fill="rgb(255,0,0)" stroke="rgb(255,0,0)" paint-order="fill" d="M 382.20037841796875 125.8863296508789 A 2.5 2.5 0 1 1 382.20037716796884 125.88382965129557" fill-opacity="1" clip-path="url(#kehaxpMIFVQg)" stroke-opacity="1" stroke-linejoin="bevel" stroke-miterlimit="10" stroke-dasharray=""/><path fill="rgb(255,0,0)" stroke="rgb(255,0,0)" paint-order="fill" d="M 411.9336242675781 140.89901733398438 A 2.5 2.5 0 1 1 411.9336230175782 140.89651733440104" fill-opacity="1" clip-path="url(#kehaxpMIFVQg)" stroke-opacity="1" stroke-linejoin="bevel" stroke-miterlimit="10" stroke-dasharray=""/><path fill="rgb(255,0,0)" stroke="rgb(255,0,0)" paint-order="fill" d="M 441.6668701171875 155.5989532470703 A 2.5 2.5 0 1 1 441.6668688671876 155.59645324748698" fill-opacity="1" clip-path="url(#kehaxpMIFVQg)" stroke-opacity="1" stroke-linejoin="bevel" stroke-miterlimit="10" stroke-dasharray=""/><path fill="rgb(255,0,0)" stroke="rgb(255,0,0)" paint-order="fill" d="M 471.4001159667969 136.8330841064453 A 2.5 2.5 0 1 1 471.40011471679696 136.83058410686198" fill-opacity="1" clip-path="url(#kehaxpMIFVQg)" stroke-opacity="1" stroke-linejoin="bevel" stroke-miterlimit="10" stroke-dasharray=""/><path fill="rgb(255,0,0)" stroke="rgb(255,0,0)" paint-order="fill" d="M 501.13336181640625 158.10107421875 A 2.5 2.5 0 1 1 501.13336056640634 158.09857421916666" fill-opacity="1" clip-path="url(#kehaxpMIFVQg)" stroke-opacity="1" stroke-linejoin="bevel" stroke-miterlimit="10" stroke-dasharray=""/><path fill="rgb(255,0,0)" stroke="rgb(255,0,0)" paint-order="fill" d="M 530.8666381835938 159.66488647460938 A 2.5 2.5 0 1 1 530.8666369335939 159.66238647502604" fill-opacity="1" clip-path="url(#kehaxpMIFVQg)" stroke-opacity="1" stroke-linejoin="bevel" stroke-miterlimit="10" stroke-dasharray=""/><path fill="rgb(255,0,0)" stroke="rgb(255,0,0)" paint-order="fill" d="M 560.599853515625 162.79254150390625 A 2.5 2.5 0 1 1 560.5998522656251 162.79004150432291" fill-opacity="1" clip-path="url(#kehaxpMIFVQg)" stroke-opacity="1" stroke-linejoin="bevel" stroke-miterlimit="10" stroke-dasharray=""/><path fill="rgb(255,0,0)" stroke="rgb(255,0,0)" paint-order="fill" d="M 590.3331298828125 167.4840087890625 A 2.5 2.5 0 1 1 590.3331286328126 167.48150878947916" fill-opacity="1" clip-path="url(#kehaxpMIFVQg)" stroke-opacity="1" stroke-linejoin="bevel" stroke-miterlimit="10" stroke-dasharray=""/><path fill="rgb(255,0,0)" stroke="rgb(255,0,0)" paint-order="fill" d="M 620.0663452148438 169.67335510253906 A 2.5 2.5 0 1 1 620.0663439648439 169.67085510295573" fill-opacity="1" clip-path="url(#kehaxpMIFVQg)" stroke-opacity="1" stroke-linejoin="bevel" stroke-miterlimit="10" stroke-dasharray=""/><path fill="rgb(255,0,0)" stroke="rgb(255,0,0)" paint-order="fill" d="M 649.7996215820312 184.373291015625 A 2.5 2.5 0 1 1 649.7996203320314 184.37079101604166" fill-opacity="1" clip-path="url(#kehaxpMIFVQg)" stroke-opacity="1" stroke-linejoin="bevel" stroke-miterlimit="10" stroke-dasharray=""/><path fill="rgb(255,0,0)" stroke="rgb(255,0,0)" paint-order="fill" d="M 679.5328369140625 177.80523681640625 A 2.5 2.5 0 1 1 679.5328356640626 177.80273681682291" fill-opacity="1" clip-path="url(#kehaxpMIFVQg)" stroke-opacity="1" stroke-linejoin="bevel" stroke-miterlimit="10" stroke-dasharray=""/><path fill="rgb(255,0,0)" stroke="rgb(255,0,0)" paint-order="fill" d="M 709.26611328125 194.06898498535156 A 2.5 2.5 0 1 1 709.2661120312501 194.06648498576823" fill-opacity="1" clip-path="url(#kehaxpMIFVQg)" stroke-opacity="1" stroke-linejoin="bevel" stroke-miterlimit="10" stroke-dasharray=""/><path fill="rgb(255,0,0)" stroke="rgb(255,0,0)" paint-order="fill" d="M 738.9993286132812 198.1349334716797 A 2.5 2.5 0 1 1 738.9993273632814 198.13243347209635" fill-opacity="1" clip-path="url(#kehaxpMIFVQg)" stroke-opacity="1" stroke-linejoin="bevel" stroke-miterlimit="10" stroke-dasharray=""/><path fill="rgb(255,0,0)" stroke="rgb(255,0,0)" paint-order="fill" d="M 768.7326049804688 205.32850646972656 A 2.5 2.5 0 1 1 768.7326037304689 205.32600647014323" fill-opacity="1" clip-path="url(#kehaxpMIFVQg)" stroke-opacity="1" stroke-linejoin="bevel" stroke-miterlimit="10" stroke-dasharray=""/><path fill="rgb(255,0,0)" stroke="rgb(255,0,0)" paint-order="fill" d="M 798.4658203125 205.95404052734375 A 2.5 2.5 0 1 1 798.4658190625001 205.95154052776041" fill-opacity="1" clip-path="url(#kehaxpMIFVQg)" stroke-opacity="1" stroke-linejoin="bevel" stroke-miterlimit="10" stroke-dasharray=""/><path fill="rgb(255,0,0)" stroke="rgb(255,0,0)" paint-order="fill" d="M 828.1990966796875 214.08592224121094 A 2.5 2.5 0 1 1 828.1990954296876 214.0834222416276" fill-opacity="1" clip-path="url(#kehaxpMIFVQg)" stroke-opacity="1" stroke-linejoin="bevel" stroke-miterlimit="10" stroke-dasharray=""/><path fill="rgb(255,0,0)" stroke="rgb(255,0,0)" paint-order="fill" d="M 857.9323120117188 216.9008026123047 A 2.5 2.5 0 1 1 857.9323107617189 216.89830261272135" fill-opacity="1" clip-path="url(#kehaxpMIFVQg)" stroke-opacity="1" stroke-linejoin="bevel" stroke-miterlimit="10" stroke-dasharray=""/><path fill="rgb(255,0,0)" stroke="rgb(255,0,0)" paint-order="fill" d="M 887.6655883789062 221.905029296875 A 2.5 2.5 0 1 1 887.6655871289064 221.90252929729166" fill-opacity="1" clip-path="url(#kehaxpMIFVQg)" stroke-opacity="1" stroke-linejoin="bevel" stroke-miterlimit="10" stroke-dasharray=""/><path fill="rgb(255,0,0)" stroke="rgb(255,0,0)" paint-order="fill" d="M 917.3988037109375 230.6624298095703 A 2.5 2.5 0 1 1 917.3988024609376 230.65992980998698" fill-opacity="1" clip-path="url(#kehaxpMIFVQg)" stroke-opacity="1" stroke-linejoin="bevel" stroke-miterlimit="10" stroke-dasharray=""/><path fill="rgb(255,0,0)" stroke="rgb(255,0,0)" paint-order="fill" d="M 947.132080078125 233.7900848388672 A 2.5 2.5 0 1 1 947.1320788281251 233.78758483928385" fill-opacity="1" clip-path="url(#kehaxpMIFVQg)" stroke-opacity="1" stroke-linejoin="bevel" stroke-miterlimit="10" stroke-dasharray=""/><path fill="none" stroke="none"/><path fill="none" stroke="rgb(255,0,0)" paint-order="fill" d="M 82.36792755126953 47.33333206176758 L 112.1011734008789 57.96551513671875 L 141.83441162109375 68.2029037475586 L 171.56765747070312 78.05813598632812 L 201.3009033203125 87.5434799194336 L 231.03416442871094 96.67082977294922 L 260.76739501953125 105.45173645019531 L 290.5006408691406 113.89739227294922 L 320.23388671875 122.0186767578125 L 349.9671325683594 129.82611083984375 L 379.70037841796875 137.32994079589844 L 409.4336242675781 144.5400848388672 L 439.1668701171875 151.46617126464844 L 468.9001159667969 158.1175079345703 L 498.63336181640625 164.503173828125 L 528.3666381835938 170.63194274902344 L 558.099853515625 176.51231384277344 L 587.8331298828125 182.15255737304688 L 617.5663452148438 187.56068420410156 L 647.2996215820312 192.74444580078125 L 677.0328369140625 197.7113800048828 L 706.76611328125 202.46878051757812 L 736.4993286132812 207.0237274169922 L 766.2326049804688 211.38307189941406 L 795.9658203125 215.553466796875 L 825.6990966796875 219.54136657714844 L 855.4323120117188 223.35302734375 L 885.1655883789062 226.99447631835938 L 914.8988037109375 230.4716033935547 L 944.632080078125 233.7900848388672" stroke-opacity="1" stroke-linejoin="bevel" stroke-miterlimit="10" stroke-width="2" stroke-dasharray="" clip-path="url(#yGGfIBygayRm)"/><path fill="none" stroke="rgb(0,0,0)" paint-order="fill" d="M 56.5 254.5 L 970.5 254.5" stroke-opacity="1" stroke-linejoin="bevel" stroke-miterlimit="10" stroke-dasharray=""/><path fill="none" stroke="rgb(0,0,0)" paint-order="fill" d="M 201.5 260.5 L 201.5 252.5 M 349.5 260.5 L 349.5 252.5 M 498.5 260.5 L 498.5 252.5 M 647.5 260.5 L 647.5 252.5 M 795.5 260.5 L 795.5 252.5 M 944.5 260.5 L 944.5 252.5" stroke-opacity="1" stroke-linejoin="bevel" stroke-miterlimit="10" stroke-dasharray=""/><path fill="none" stroke="rgb(0,0,0)" paint-order="fill" d="M 171.5 258.5 L 171.5 254.5 M 141.5 258.5 L 141.5 254.5 M 112.5 258.5 L 112.5 254.5 M 82.5 258.5 L 82.5 254.5 M 201.5 258.5 L 201.5 254.5 M 231.5 258.5 L 231.5 254.5 M 260.5 258.5 L 260.5 254.5 M 290.5 258.5 L 290.5 254.5 M 320.5 258.5 L 320.5 254.5 M 349.5 258.5 L 349.5 254.5 M 379.5 258.5 L 379.5 254.5 M 409.5 258.5 L 409.5 254.5 M 439.5 258.5 L 439.5 254.5 M 468.5 258.5 L 468.5 254.5 M 498.5 258.5 L 498.5 254.5 M 528.5 258.5 L 528.5 254.5 M 558.5 258.5 L 558.5 254.5 M 587.5 258.5 L 587.5 254.5 M 617.5 258.5 L 617.5 254.5 M 647.5 258.5 L 647.5 254.5 M 677.5 258.5 L 677.5 254.5 M 706.5 258.5 L 706.5 254.5 M 736.5 258.5 L 736.5 254.5 M 766.5 258.5 L 766.5 254.5 M 795.5 258.5 L 795.5 254.5 M 825.5 258.5 L 825.5 254.5 M 855.5 258.5 L 855.5 254.5 M 885.5 258.5 L 885.5 254.5 M 914.5 258.5 L 914.5 254.5 M 944.5 258.5 L 944.5 254.5" stroke-opacity="1" stroke-linejoin="bevel" stroke-miterlimit="10" stroke-dasharray=""/><text fill="rgb(68,68,68)" stroke="none" font-family="helvetica" font-size="11px" font-style="normal" font-weight="normal" text-decoration="normal" x="197.74256992340088" y="273" text-anchor="start" dominant-baseline="alphabetic" transform="matrix(1, 0, 0, 1, 0.5, 0.5)" fill-opacity="1">5</text><text fill="rgb(68,68,68)" stroke="none" font-family="helvetica" font-size="11px" font-style="normal" font-weight="normal" text-decoration="normal" x="343.35046577453613" y="273" text-anchor="start" dominant-baseline="alphabetic" transform="matrix(1, 0, 0, 1, 0.5, 0.5)" fill-opacity="1">10</text><text fill="rgb(68,68,68)" stroke="none" font-family="helvetica" font-size="11px" font-style="normal" font-weight="normal" text-decoration="normal" x="492.016695022583" y="273" text-anchor="start" dominant-baseline="alphabetic" transform="matrix(1, 0, 0, 1, 0.5, 0.5)" fill-opacity="1">15</text><text fill="rgb(68,68,68)" stroke="none" font-family="helvetica" font-size="11px" font-style="normal" font-weight="normal" text-decoration="normal" x="640.682954788208" y="273" text-anchor="start" dominant-baseline="alphabetic" transform="matrix(1, 0, 0, 1, 0.5, 0.5)" fill-opacity="1">20</text><text fill="rgb(68,68,68)" stroke="none" font-family="helvetica" font-size="11px" font-style="normal" font-weight="normal" text-decoration="normal" x="789.3491535186768" y="273" text-anchor="start" dominant-baseline="alphabetic" transform="matrix(1, 0, 0, 1, 0.5, 0.5)" fill-opacity="1">25</text><text fill="rgb(68,68,68)" stroke="none" font-family="helvetica" font-size="11px" font-style="normal" font-weight="normal" text-decoration="normal" x="938.0154132843018" y="273" text-anchor="start" dominant-baseline="alphabetic" transform="matrix(1, 0, 0, 1, 0.5, 0.5)" fill-opacity="1">30</text><text fill="rgb(68,68,68)" stroke="none" font-family="helvetica" font-size="13px" font-style="italic" font-weight="normal" text-decoration="normal" x="493.82500076293945" y="294" text-anchor="start" dominant-baseline="alphabetic" transform="matrix(1, 0, 0, 1, 0.5, 0.5)" fill-opacity="1">Δt (µs)</text><path fill="none" stroke="rgb(0,0,0)" paint-order="fill" d="M 56.5 254.5 L 56.5 28.5" stroke-opacity="1" stroke-linejoin="bevel" stroke-miterlimit="10" stroke-dasharray=""/><path fill="none" stroke="rgb(0,0,0)" paint-order="fill" d="M 50.5 233.5 L 58.5 233.5 M 50.5 196.5 L 58.5 196.5 M 50.5 158.5 L 58.5 158.5 M 50.5 121.5 L 58.5 121.5 M 50.5 83.5 L 58.5 83.5 M 50.5 46.5 L 58.5 46.5" stroke-opacity="1" stroke-linejoin="bevel" stroke-miterlimit="10" stroke-dasharray=""/><path fill="none" stroke="rgb(0,0,0)" paint-order="fill" d="M 52.5 241.5 L 56.5 241.5 M 52.5 248.5 L 56.5 248.5 M 52.5 233.5 L 56.5 233.5 M 52.5 226.5 L 56.5 226.5 M 52.5 218.5 L 56.5 218.5 M 52.5 211.5 L 56.5 211.5 M 52.5 203.5 L 56.5 203.5 M 52.5 196.5 L 56.5 196.5 M 52.5 188.5 L 56.5 188.5 M 52.5 181.5 L 56.5 181.5 M 52.5 173.5 L 56.5 173.5 M 52.5 166.5 L 56.5 166.5 M 52.5 158.5 L 56.5 158.5 M 52.5 151.5 L 56.5 151.5 M 52.5 143.5 L 56.5 143.5 M 52.5 136.5 L 56.5 136.5 M 52.5 128.5 L 56.5 128.5 M 52.5 121.5 L 56.5 121.5 M 52.5 113.5 L 56.5 113.5 M 52.5 106.5 L 56.5 106.5 M 52.5 98.5 L 56.5 98.5 M 52.5 91.5 L 56.5 91.5 M 52.5 83.5 L 56.5 83.5 M 52.5 76.5 L 56.5 76.5 M 52.5 68.5 L 56.5 68.5 M 52.5 61.5 L 56.5 61.5 M 52.5 53.5 L 56.5 53.5 M 52.5 46.5 L 56.5 46.5 M 52.5 38.5 L 56.5 38.5 M 52.5 31.5 L 56.5 31.5" stroke-opacity="1" stroke-linejoin="bevel" stroke-miterlimit="10" stroke-dasharray=""/><text fill="rgb(68,68,68)" stroke="none" font-family="helvetica" font-size="11px" font-style="normal" font-weight="normal" text-decoration="normal" x="38.88333320617676" y="237.2900848388672" text-anchor="start" dominant-baseline="alphabetic" transform="matrix(1, 0, 0, 1, 0.5, 0.5)" fill-opacity="1">0</text><text fill="rgb(68,68,68)" stroke="none" font-family="helvetica" font-size="11px" font-style="normal" font-weight="normal" text-decoration="normal" x="32.766666412353516" y="199.7583465576172" text-anchor="start" dominant-baseline="alphabetic" transform="matrix(1, 0, 0, 1, 0.5, 0.5)" fill-opacity="1">20</text><text fill="rgb(68,68,68)" stroke="none" font-family="helvetica" font-size="11px" font-style="normal" font-weight="normal" text-decoration="normal" x="32.766666412353516" y="162.22659301757812" text-anchor="start" dominant-baseline="alphabetic" transform="matrix(1, 0, 0, 1, 0.5, 0.5)" fill-opacity="1">40</text><text fill="rgb(68,68,68)" stroke="none" font-family="helvetica" font-size="11px" font-style="normal" font-weight="normal" text-decoration="normal" x="32.766666412353516" y="124.69486236572266" text-anchor="start" dominant-baseline="alphabetic" transform="matrix(1, 0, 0, 1, 0.5, 0.5)" fill-opacity="1">60</text><text fill="rgb(68,68,68)" stroke="none" font-family="helvetica" font-size="11px" font-style="normal" font-weight="normal" text-decoration="normal" x="32.766666412353516" y="87.16311645507812" text-anchor="start" dominant-baseline="alphabetic" transform="matrix(1, 0, 0, 1, 0.5, 0.5)" fill-opacity="1">80</text><text fill="rgb(68,68,68)" stroke="none" font-family="helvetica" font-size="11px" font-style="normal" font-weight="normal" text-decoration="normal" x="26.649999618530273" y="49.631378173828125" text-anchor="start" dominant-baseline="alphabetic" transform="matrix(1, 0, 0, 1, 0.5, 0.5)" fill-opacity="1">100</text><text fill="rgb(68,68,68)" stroke="none" font-family="helvetica" font-size="13px" font-style="italic" font-weight="normal" text-decoration="normal" x="-0.4916667938232422" y="138" text-anchor="start" dominant-baseline="alphabetic" transform="matrix(6.123233995736766e-17, -1, 1, 6.123233995736766e-17, -121.85000038146973, 160.14999961853027)" fill-opacity="1">counts</text><path fill="rgb(255,255,255)" stroke="rgb(229,229,229)" paint-order="fill" d="M 860.8833351135254 38.5 L 960.5 38.5 L 960.5 78.5 L 860.8833351135254 78.5 L 860.8833351135254 38.5" fill-opacity="0.9490196078431372" clip-path="url(#qLLOPrauNXBh)" stroke-opacity="0.5019607843137255" stroke-linejoin="bevel" stroke-miterlimit="10" stroke-dasharray=""/><text fill="rgb(68,68,68)" stroke="none" font-family="helvetica" font-size="13px" font-style="normal" font-weight="normal" text-decoration="normal" x="895.3833351135254" y="58" text-anchor="start" dominant-baseline="central" transform="matrix(1, 0, 0, 1, 0.5, 0.5)" fill-opacity="1">p=0.0233</text><path fill="none" stroke="rgb(255,0,0)" paint-order="fill" d="M 870.8833351135254 58.5 L 890.8833351135254 58.5" stroke-opacity="1" stroke-linejoin="bevel" stroke-miterlimit="10" stroke-width="2" stroke-dasharray="" clip-path="url(#qLLOPrauNXBh)"/><path fill="none" stroke="none"/><text fill="rgb(68,68,68)" stroke="none" font-family="helvetica" font-size="13px" font-style="normal" font-weight="bold" text-decoration="normal" x="0" y="0" text-anchor="start" dominant-baseline="text-after-edge" transform="matrix(1, 0, 0, 1, 56.5, 23.5)" fill-opacity="1">Time difference between pixel hits area (107 to 108, 145 to 148)</text></svg>