<svg version="1.1" xmlns="http://www.w3.org/2000/svg" xmlns:xlink="http://www.w3.org/1999/xlink" width="1000" height="300"><defs><clipPath id="FMUySMaCQhHX"><path fill="none" stroke="none" d="M 66.5 28.5 L 970.5 28.5 L 970.5 254.5 L 66.5 254.5 L 66.5 28.5"/></clipPath><clipPath id="vLqngCNkbcyO"><path fill="none" stroke="none" d="M 66.5 28.5 L 970.5 28.5 L 970.5 254.5 L 66.5 254.5 L 66.5 28.5"/></clipPath><clipPath id="MFMZLZiRVWoC"><path fill="none" stroke="none" d="M 66.5 28.5 L 970.5 28.5 L 970.5 254.5 L 66.5 254.5 L 66.5 28.5"/></clipPath><clipPath id="iywoWDQdzTUU"><path fill="none" stroke="none" d="M 66.5 28.5 L 970.5 28.5 L 970.5 254.5 L 66.5 254.5 L 66.5 28.5"/></clipPath></defs><path fill="rgb(255,255,255)" stroke="none" paint-order="stroke" d="M 0.5 0.5 L 1000.5 0.5 L 1000.5 300.5 L 0.5 300.5 L 0.5 0.5" fill-opacity="1"/><rect fill="#FFFFFF" stroke="none" x="66" y="28" width="904" height="226" transform="matrix(1, 0, 0, 1, 0.5, 0.5)"/><path fill="rgb(255,255,255)" stroke="none" paint-order="stroke" d="M 66.5 28.5 L 970.5 28.5 L 970.5 254.5 L 66.5 254.5 L 66.5 28.5" fill-opacity="1"/><path fill="none" stroke="rgb(229,229,229)" paint-order="fill" d="M 66.5 28.5 L 970.5 28.5 L 970.5 254.5 L 66.5 254.5 L 66.5 28.5" stroke-opacity="1" stroke-linejoin="bevel" stroke-miterlimit="10" stroke-dasharray=""/><path fill="none" stroke="rgb(229,229,229)" paint-order="fill" d="M 222.5 254.5 L 222.5 28.5 M 378.5 254.5 L 378.5 28.5 M 534.5 254.5 L 534.5 28.5 M 689.5 254.5 L 689.5 28.5 M 845.5 254.5 L 845.5 28.5" stroke-opacity="1" stroke-linejoin="bevel" stroke-miterlimit="10" stroke-dasharray="" clip-path="url(#FMUySMaCQhHX)"/><path fill="none" stroke="rgb(229,229,229)" paint-order="fill" d="M 66.5 226.5 L 970.5 226.5 M 66.5 196.5 L 970.5 196.5 M 66.5 166.5 L 970.5 166.5 M 66.5 136.5 L 970.5 136.5 M 66.5 106.5 L 970.5 106.5 M 66.5 77.5 L 970.5 77.5 M 66.5 47.5 L 970.5 47.5" stroke-opacity="1" stroke-linejoin="bevel" stroke-miterlimit="10" stroke-dasharray="" clip-path="url(#vLqngCNkbcyO)"/><path fill="none" stroke="none"/><path fill="none" stroke="rgb(48,162,218)" paint-order="fill" d="M 66.5 106.91120147705078 L 97.67241668701172 188.3973388671875 L 128.84483337402344 137.73147583007812 L 160.01724243164062 119.29500579833984 L 191.1896514892578 65.77489471435547 L 222.36207580566406 126.49801635742188 L 253.53448486328125 105.56184387207031 L 284.7069091796875 53.773895263671875 L 315.8793029785156 79.59477996826172 L 347.0517272949219 140.69314575195312 L 378.2241516113281 47.33333206176758 L 409.39654541015625 78.4569320678711 L 440.5689697265625 142.0310821533203 L 471.74139404296875 117.38578796386719 L 502.9137878417969 72.31554412841797 L 534.086181640625 139.95692443847656 L 565.2586059570312 149.25857543945312 L 596.4310302734375 133.0989532470703 L 627.6034545898438 97.47039794921875 L 658.77587890625 151.66140747070312 L 689.9483032226562 101.90599822998047 L 721.1206665039062 158.92469787597656 L 752.2930908203125 155.53140258789062 L 783.4655151367188 172.24156188964844 L 814.637939453125 201.6137237548828 L 845.8103637695312 218.95880126953125 L 876.9827880859375 166.8944549560547 L 908.1551513671875 191.8418731689453 L 939.3275756835938 164.56631469726562 L 970.5 235.6666717529297" stroke-opacity="1" stroke-linejoin="bevel" stroke-miterlimit="10" stroke-width="2" stroke-dasharray="" clip-path="url(#MFMZLZiRVWoC)"/><path fill="none" stroke="rgb(0,0,0)" paint-order="fill" d="M 66.5 254.5 L 970.5 254.5" stroke-opacity="1" stroke-linejoin="bevel" stroke-miterlimit="10" stroke-dasharray=""/><path fill="none" stroke="rgb(0,0,0)" paint-order="fill" d="M 66.5 260.5 L 66.5 252.5 M 222.5 260.5 L 222.5 252.5 M 378.5 260.5 L 378.5 252.5 M 534.5 260.5 L 534.5 252.5 M 689.5 260.5 L 689.5 252.5 M 845.5 260.5 L 845.5 252.5" stroke-opacity="1" stroke-linejoin="bevel" stroke-miterlimit="10" stroke-dasharray=""/><path fill="none" stroke="rgb(0,0,0)" paint-order="fill" d="M 66.5 258.5 L 66.5 254.5 M 97.5 258.5 L 97.5 254.5 M 128.5 258.5 L 128.5 254.5 M 160.5 258.5 L 160.5 254.5 M 191.5 258.5 L 191.5 254.5 M 222.5 258.5 L 222.5 254.5 M 253.5 258.5 L 253.5 254.5 M 284.5 258.5 L 284.5 254.5 M 315.5 258.5 L 315.5 254.5 M 347.5 258.5 L 347.5 254.5 M 378.5 258.5 L 378.5 254.5 M 409.5 258.5 L 409.5 254.5 M 440.5 258.5 L 440.5 254.5 M 471.5 258.5 L 471.5 254.5 M 502.5 258.5 L 502.5 254.5 M 534.5 258.5 L 534.5 254.5 M 565.5 258.5 L 565.5 254.5 M 596.5 258.5 L 596.5 254.5 M 627.5 258.5 L 627.5 254.5 M 658.5 258.5 L 658.5 254.5 M 689.5 258.5 L 689.5 254.5 M 721.5 258.5 L 721.5 254.5 M 752.5 258.5 L 752.5 254.5 M 783.5 258.5 L 783.5 254.5 M 814.5 258.5 L 814.5 254.5 M 845.5 258.5 L 845.5 254.5 M 876.5 258.5 L 876.5 254.5 M 908.5 258.5 L 908.5 254.5 M 939.5 258.5 L 939.5 254.5 M 970.5 258.5 L 970.5 254.5" stroke-opacity="1" stroke-linejoin="bevel" stroke-miterlimit="10" stroke-dasharray=""/><text fill="rgb(68,68,68)" stroke="none" font-family="helvetica" font-size="11px" font-style="normal" font-weight="normal" text-decoration="normal" x="62.94166660308838" y="273" text-anchor="start" dominant-baseline="alphabetic" transform="matrix(1, 0, 0, 1, 0.5, 0.5)" fill-opacity="1">0</text><text fill="rgb(68,68,68)" stroke="none" font-family="helvetica" font-size="11px" font-style="normal" font-weight="normal" text-decoration="normal" x="218.80374240875244" y="273" text-anchor="start" dominant-baseline="alphabetic" transform="matrix(1, 0, 0, 1, 0.5, 0.5)" fill-opacity="1">5</text><text fill="rgb(68,68,68)" stroke="none" font-family="helvetica" font-size="11px" font-style="normal" font-weight="normal" text-decoration="normal" x="371.6074848175049" y="273" text-anchor="start" dominant-baseline="alphabetic" transform="matrix(1, 0, 0, 1, 0.5, 0.5)" fill-opacity="1">10</text><text fill="rgb(68,68,68)" stroke="none" font-family="helvetica" font-size="11px" font-style="normal" font-weight="normal" text-decoration="normal" x="527.4695148468018" y="273" text-anchor="start" dominant-baseline="alphabetic" transform="matrix(1, 0, 0, 1, 0.5, 0.5)" fill-opacity="1">15</text><text fill="rgb(68,68,68)" stroke="none" font-family="helvetica" font-size="11px" font-style="normal" font-weight="normal" text-decoration="normal" x="683.331636428833" y="273" text-anchor="start" dominant-baseline="alphabetic" transform="matrix(1, 0, 0, 1, 0.5, 0.5)" fill-opacity="1">20</text><text fill="rgb(68,68,68)" stroke="none" font-family="helvetica" font-size="11px" font-style="normal" font-weight="normal" text-decoration="normal" x="839.193696975708" y="273" text-anchor="start" dominant-baseline="alphabetic" transform="matrix(1, 0, 0, 1, 0.5, 0.5)" fill-opacity="1">25</text><text fill="rgb(68,68,68)" stroke="none" font-family="helvetica" font-size="13px" font-style="italic" font-weight="normal" text-decoration="normal" x="514.75" y="294" text-anchor="start" dominant-baseline="alphabetic" transform="matrix(1, 0, 0, 1, 0.5, 0.5)" fill-opacity="1">x</text><path fill="none" stroke="rgb(0,0,0)" paint-order="fill" d="M 66.5 254.5 L 66.5 28.5" stroke-opacity="1" stroke-linejoin="bevel" stroke-miterlimit="10" stroke-dasharray=""/><path fill="none" stroke="rgb(0,0,0)" paint-order="fill" d="M 60.5 226.5 L 68.5 226.5 M 60.5 196.5 L 68.5 196.5 M 60.5 166.5 L 68.5 166.5 M 60.5 136.5 L 68.5 136.5 M 60.5 106.5 L 68.5 106.5 M 60.5 77.5 L 68.5 77.5 M 60.5 47.5 L 68.5 47.5" stroke-opacity="1" stroke-linejoin="bevel" stroke-miterlimit="10" stroke-dasharray=""/><path fill="none" stroke="rgb(0,0,0)" paint-order="fill" d="M 62.5 232.5 L 66.5 232.5 M 62.5 238.5 L 66.5 238.5 M 62.5 244.5 L 66.5 244.5 M 62.5 250.5 L 66.5 250.5 M 62.5 226.5 L 66.5 226.5 M 62.5 220.5 L 66.5 220.5 M 62.5 214.5 L 66.5 214.5 M 62.5 208.5 L 66.5 208.5 M 62.5 202.5 L 66.5 202.5 M 62.5 196.5 L 66.5 196.5 M 62.5 190.5 L 66.5 190.5 M 62.5 184.5 L 66.5 184.5 M 62.5 178.5 L 66.5 178.5 M 62.5 172.5 L 66.5 172.5 M 62.5 166.5 L 66.5 166.5 M 62.5 160.5 L 66.5 160.5 M 62.5 154.5 L 66.5 154.5 M 62.5 148.5 L 66.5 148.5 M 62.5 142.5 L 66.5 142.5 M 62.5 136.5 L 66.5 136.5 M 62.5 130.5 L 66.5 130.5 M 62.5 124.5 L 66.5 124.5 M 62.5 118.5 L 66.5 118.5 M 62.5 112.5 L 66.5 112.5 M 62.5 106.5 L 66.5 106.5 M 62.5 100.5 L 66.5 100.5 M 62.5 94.5 L 66.5 94.5 M 62.5 88.5 L 66.5 88.5 M 62.5 82.5 L 66.5 82.5 M 62.5 77.5 L 66.5 77.5 M 62.5 71.5 L 66.5 71.5 M 62.5 65.5 L 66.5 65.5 M 62.5 59.5 L 66.5 59.5 M 62.5 53.5 L 66.5 53.5 M 62.5 47.5 L 66.5 47.5 M 62.5 41.5 L 66.5 41.5 M 62.5 35.5 L 66.5 35.5 M 62.5 29.5 L 66.5 29.5" stroke-opacity="1" stroke-linejoin="bevel" stroke-miterlimit="10" stroke-dasharray=""/><text fill="rgb(68,68,68)" stroke="none" font-family="helvetica" font-size="11px" font-style="normal" font-weight="normal" text-decoration="normal" x="42.766666412353516" y="230.01174926757812" text-anchor="start" dominant-baseline="alphabetic" transform="matrix(1, 0, 0, 1, 0.5, 0.5)" fill-opacity="1">98</text><text fill="rgb(68,68,68)" stroke="none" font-family="helvetica" font-size="11px" font-style="normal" font-weight="normal" text-decoration="normal" x="33.60000038146973" y="200.11155700683594" text-anchor="start" dominant-baseline="alphabetic" transform="matrix(1, 0, 0, 1, 0.5, 0.5)" fill-opacity="1">98.5</text><text fill="rgb(68,68,68)" stroke="none" font-family="helvetica" font-size="11px" font-style="normal" font-weight="normal" text-decoration="normal" x="42.766666412353516" y="170.21136474609375" text-anchor="start" dominant-baseline="alphabetic" transform="matrix(1, 0, 0, 1, 0.5, 0.5)" fill-opacity="1">99</text><text fill="rgb(68,68,68)" stroke="none" font-family="helvetica" font-size="11px" font-style="normal" font-weight="normal" text-decoration="normal" x="33.60000038146973" y="140.31117248535156" text-anchor="start" dominant-baseline="alphabetic" transform="matrix(1, 0, 0, 1, 0.5, 0.5)" fill-opacity="1">99.5</text><text fill="rgb(68,68,68)" stroke="none" font-family="helvetica" font-size="11px" font-style="normal" font-weight="normal" text-decoration="normal" x="36.64999961853027" y="110.41098022460938" text-anchor="start" dominant-baseline="alphabetic" transform="matrix(1, 0, 0, 1, 0.5, 0.5)" fill-opacity="1">100</text><text fill="rgb(68,68,68)" stroke="none" font-family="helvetica" font-size="11px" font-style="normal" font-weight="normal" text-decoration="normal" x="27.483333587646484" y="80.51078796386719" text-anchor="start" dominant-baseline="alphabetic" transform="matrix(1, 0, 0, 1, 0.5, 0.5)" fill-opacity="1">100.5</text><text fill="rgb(68,68,68)" stroke="none" font-family="helvetica" font-size="11px" font-style="normal" font-weight="normal" text-decoration="normal" x="36.64999961853027" y="50.610595703125" text-anchor="start" dominant-baseline="alphabetic" transform="matrix(1, 0, 0, 1, 0.5, 0.5)" fill-opacity="1">101</text><text fill="rgb(68,68,68)" stroke="none" font-family="helvetica" font-size="13px" font-style="italic" font-weight="normal" text-decoration="normal" x="16.233333587646484" y="138" text-anchor="start" dominant-baseline="alphabetic" transform="matrix(6.123233995736766e-17, -1, 1, 6.123233995736766e-17, -121.01666641235352, 160.98333358764648)" fill-opacity="1">y</text><path fill="none" stroke="none"/><text fill="rgb(68,68,68)" stroke="none" font-family="helvetica" font-size="13px" font-style="normal" font-weight="bold" text-decoration="normal" x="0" y="0" text-anchor="start" dominant-baseline="text-after-edge" transform="matrix(1, 0, 0, 1, 66.5, 23.5)" fill-opacity="1">loss per pulse in %</text></svg>