<svg version="1.1" xmlns="http://www.w3.org/2000/svg" xmlns:xlink="http://www.w3.org/1999/xlink" width="1000" height="300"><defs><clipPath id="HOilRkWMVvpm"><path fill="none" stroke="none" d="M 62.5 28.5 L 970.5 28.5 L 970.5 254.5 L 62.5 254.5 L 62.5 28.5"/></clipPath><clipPath id="hNSoLRQvRAfd"><path fill="none" stroke="none" d="M 62.5 28.5 L 970.5 28.5 L 970.5 254.5 L 62.5 254.5 L 62.5 28.5"/></clipPath><clipPath id="OTGGiXthtPnN"><path fill="none" stroke="none" d="M 62.5 28.5 L 970.5 28.5 L 970.5 254.5 L 62.5 254.5 L 62.5 28.5"/></clipPath><clipPath id="UZzHDNdceQgK"><path fill="none" stroke="none" d="M 62.5 28.5 L 970.5 28.5 L 970.5 254.5 L 62.5 254.5 L 62.5 28.5"/></clipPath><clipPath id="sPDMQkJrnNlX"><path fill="none" stroke="none" d="M 62.5 28.5 L 970.5 28.5 L 970.5 254.5 L 62.5 254.5 L 62.5 28.5"/></clipPath><clipPath id="lnkIzZFTKTZB"><path fill="none" stroke="none" d="M 62.5 28.5 L 970.5 28.5 L 970.5 254.5 L 62.5 254.5 L 62.5 28.5"/></clipPath><clipPath id="notgKHPpEtxp"><path fill="none" stroke="none" d="M 62.5 28.5 L 970.5 28.5 L 970.5 254.5 L 62.5 254.5 L 62.5 28.5"/></clipPath><clipPath id="gqWFQaITFIHX"><path fill="none" stroke="none" d="M 62.5 28.5 L 970.5 28.5 L 970.5 254.5 L 62.5 254.5 L 62.5 28.5"/></clipPath><clipPath id="PUlbGXlZQDXQ"><path fill="none" stroke="none" d="M 62.5 28.5 L 970.5 28.5 L 970.5 254.5 L 62.5 254.5 L 62.5 28.5"/></clipPath><clipPath id="gGSgShdShGbT"><path fill="none" stroke="none" d="M 62.5 28.5 L 970.5 28.5 L 970.5 254.5 L 62.5 254.5 L 62.5 28.5"/></clipPath></defs><path fill="rgb(255,255,255)" stroke="none" paint-order="stroke" d="M 0.5 0.5 L 1000.5 0.5 L 1000.5 300.5 L 0.5 300.5 L 0.5 0.5" fill-opacity="1"/><rect fill="#FFFFFF" stroke="none" x="62" y="28" width="908" height="226" transform="matrix(1, 0, 0, 1, 0.5, 0.5)"/><path fill="rgb(255,255,255)" stroke="none" paint-order="stroke" d="M 62.5 28.5 L 970.5 28.5 L 970.5 254.5 L 62.5 254.5 L 62.5 28.5" fill-opacity="1"/><path fill="none" stroke="rgb(229,229,229)" paint-order="fill" d="M 62.5 28.5 L 970.5 28.5 L 970.5 254.5 L 62.5 254.5 L 62.5 28.5" stroke-opacity="1" stroke-linejoin="bevel" stroke-miterlimit="10" stroke-dasharray=""/><path fill="none" stroke="none"/><path fill="rgb(48,162,218)" stroke="none" paint-order="stroke" d="M 88.19811248779297 49.03293991088867 L 259.51885986328125 49.03293991088867 L 259.51885986328125 254.5 L 88.19811248779297 254.5 L 88.19811248779297 49.03293991088867" fill-opacity="1" clip-path="url(#OTGGiXthtPnN)"/><path fill="none" stroke="rgb(0,0,0)" paint-order="fill" d="M 88.19811248779297 49.03293991088867 L 259.51885986328125 49.03293991088867 L 259.51885986328125 254.5 L 88.19811248779297 254.5 L 88.19811248779297 49.03293991088867" stroke-opacity="1" stroke-linejoin="bevel" stroke-miterlimit="10" stroke-dasharray="" clip-path="url(#OTGGiXthtPnN)"/><path fill="rgb(48,162,218)" stroke="none" paint-order="stroke" d="M 259.51885986328125 84.01173400878906 L 430.8396301269531 84.01173400878906 L 430.8396301269531 254.5 L 259.51885986328125 254.5 L 259.51885986328125 84.01173400878906" fill-opacity="1" clip-path="url(#OTGGiXthtPnN)"/><path fill="none" stroke="rgb(0,0,0)" paint-order="fill" d="M 259.51885986328125 84.01173400878906 L 430.8396301269531 84.01173400878906 L 430.8396301269531 254.5 L 259.51885986328125 254.5 L 259.51885986328125 84.01173400878906" stroke-opacity="1" stroke-linejoin="bevel" stroke-miterlimit="10" stroke-dasharray="" clip-path="url(#OTGGiXthtPnN)"/><path fill="rgb(48,162,218)" stroke="none" paint-order="stroke" d="M 430.8396301269531 202.2942657470703 L 602.160400390625 202.2942657470703 L 602.160400390625 254.5 L 430.8396301269531 254.5 L 430.8396301269531 202.2942657470703" fill-opacity="1" clip-path="url(#OTGGiXthtPnN)"/><path fill="none" stroke="rgb(0,0,0)" paint-order="fill" d="M 430.8396301269531 202.2942657470703 L 602.160400390625 202.2942657470703 L 602.160400390625 254.5 L 430.8396301269531 254.5 L 430.8396301269531 202.2942657470703" stroke-opacity="1" stroke-linejoin="bevel" stroke-miterlimit="10" stroke-dasharray="" clip-path="url(#OTGGiXthtPnN)"/><path fill="rgb(48,162,218)" stroke="none" paint-order="stroke" d="M 602.160400390625 250.0082550048828 L 773.4811401367188 250.0082550048828 L 773.4811401367188 254.5 L 602.160400390625 254.5 L 602.160400390625 250.0082550048828" fill-opacity="1" clip-path="url(#OTGGiXthtPnN)"/><path fill="none" stroke="rgb(0,0,0)" paint-order="fill" d="M 602.160400390625 250.0082550048828 L 773.4811401367188 250.0082550048828 L 773.4811401367188 254.5 L 602.160400390625 254.5 L 602.160400390625 250.0082550048828" stroke-opacity="1" stroke-linejoin="bevel" stroke-miterlimit="10" stroke-dasharray="" clip-path="url(#OTGGiXthtPnN)"/><path fill="rgb(48,162,218)" stroke="none" paint-order="stroke" d="M 773.4811401367188 254.36231994628906 L 944.8018798828125 254.36231994628906 L 944.8018798828125 254.5 L 773.4811401367188 254.5 L 773.4811401367188 254.36231994628906" fill-opacity="1" clip-path="url(#OTGGiXthtPnN)"/><path fill="none" stroke="rgb(0,0,0)" paint-order="fill" d="M 773.4811401367188 254.36231994628906 L 944.8018798828125 254.36231994628906 L 944.8018798828125 254.5 L 773.4811401367188 254.5 L 773.4811401367188 254.36231994628906" stroke-opacity="1" stroke-linejoin="bevel" stroke-miterlimit="10" stroke-dasharray="" clip-path="url(#OTGGiXthtPnN)"/><path fill="none" stroke="none"/><text fill="rgb(0,0,0)" stroke="none" font-family="helvetica" font-size="12Pt" font-style="normal" font-weight="normal" text-decoration="normal" x="0" y="0" text-anchor="middle" dominant-baseline="central" transform="matrix(1, 0, 0, 1, 173.85848999023438, 42.149044036865234)" fill-opacity="1">2984.8</text><path fill="none" stroke="none"/><text fill="rgb(0,0,0)" stroke="none" font-family="helvetica" font-size="12Pt" font-style="normal" font-weight="normal" text-decoration="normal" x="0" y="0" text-anchor="middle" dominant-baseline="central" transform="matrix(1, 0, 0, 1, 345.17926025390625, 77.12783813476562)" fill-opacity="1">2476.6</text><path fill="none" stroke="none"/><text fill="rgb(0,0,0)" stroke="none" font-family="helvetica" font-size="12Pt" font-style="normal" font-weight="normal" text-decoration="normal" x="0" y="0" text-anchor="middle" dominant-baseline="central" transform="matrix(1, 0, 0, 1, 516.5, 195.41036987304688)" fill-opacity="1">758.4</text><path fill="none" stroke="none"/><text fill="rgb(0,0,0)" stroke="none" font-family="helvetica" font-size="12Pt" font-style="normal" font-weight="normal" text-decoration="normal" x="0" y="0" text-anchor="middle" dominant-baseline="central" transform="matrix(1, 0, 0, 1, 687.8207397460938, 243.12435913085938)" fill-opacity="1">65.2</text><path fill="none" stroke="none"/><text fill="rgb(0,0,0)" stroke="none" font-family="helvetica" font-size="12Pt" font-style="normal" font-weight="normal" text-decoration="normal" x="0" y="0" text-anchor="middle" dominant-baseline="central" transform="matrix(1, 0, 0, 1, 859.1414794921875, 247.47842407226562)" fill-opacity="1">2.0</text><path fill="none" stroke="rgb(0,0,0)" paint-order="fill" d="M 62.5 254.5 L 970.5 254.5" stroke-opacity="1" stroke-linejoin="bevel" stroke-miterlimit="10" stroke-dasharray=""/><path fill="none" stroke="rgb(0,0,0)" paint-order="fill" d="M 173.5 260.5 L 173.5 252.5 M 345.5 260.5 L 345.5 252.5 M 516.5 260.5 L 516.5 252.5 M 687.5 260.5 L 687.5 252.5 M 859.5 260.5 L 859.5 252.5" stroke-opacity="1" stroke-linejoin="bevel" stroke-miterlimit="10" stroke-dasharray=""/><path fill="none" stroke="rgb(0,0,0)" paint-order="fill" d="M 139.5 258.5 L 139.5 254.5 M 105.5 258.5 L 105.5 254.5 M 71.5 258.5 L 71.5 254.5 M 173.5 258.5 L 173.5 254.5 M 208.5 258.5 L 208.5 254.5 M 242.5 258.5 L 242.5 254.5 M 276.5 258.5 L 276.5 254.5 M 310.5 258.5 L 310.5 254.5 M 345.5 258.5 L 345.5 254.5 M 379.5 258.5 L 379.5 254.5 M 413.5 258.5 L 413.5 254.5 M 447.5 258.5 L 447.5 254.5 M 482.5 258.5 L 482.5 254.5 M 516.5 258.5 L 516.5 254.5 M 550.5 258.5 L 550.5 254.5 M 585.5 258.5 L 585.5 254.5 M 619.5 258.5 L 619.5 254.5 M 653.5 258.5 L 653.5 254.5 M 687.5 258.5 L 687.5 254.5 M 722.5 258.5 L 722.5 254.5 M 756.5 258.5 L 756.5 254.5 M 790.5 258.5 L 790.5 254.5 M 824.5 258.5 L 824.5 254.5 M 859.5 258.5 L 859.5 254.5 M 893.5 258.5 L 893.5 254.5 M 927.5 258.5 L 927.5 254.5 M 961.5 258.5 L 961.5 254.5" stroke-opacity="1" stroke-linejoin="bevel" stroke-miterlimit="10" stroke-dasharray=""/><text fill="rgb(68,68,68)" stroke="none" font-family="helvetica" font-size="11px" font-style="normal" font-weight="normal" text-decoration="normal" x="170.30015659332275" y="273" text-anchor="start" dominant-baseline="alphabetic" transform="matrix(1, 0, 0, 1, 0.5, 0.5)" fill-opacity="1">0</text><text fill="rgb(68,68,68)" stroke="none" font-family="helvetica" font-size="11px" font-style="normal" font-weight="normal" text-decoration="normal" x="341.62092685699463" y="273" text-anchor="start" dominant-baseline="alphabetic" transform="matrix(1, 0, 0, 1, 0.5, 0.5)" fill-opacity="1">1</text><text fill="rgb(68,68,68)" stroke="none" font-family="helvetica" font-size="11px" font-style="normal" font-weight="normal" text-decoration="normal" x="512.9416666030884" y="273" text-anchor="start" dominant-baseline="alphabetic" transform="matrix(1, 0, 0, 1, 0.5, 0.5)" fill-opacity="1">2</text><text fill="rgb(68,68,68)" stroke="none" font-family="helvetica" font-size="11px" font-style="normal" font-weight="normal" text-decoration="normal" x="684.2624063491821" y="273" text-anchor="start" dominant-baseline="alphabetic" transform="matrix(1, 0, 0, 1, 0.5, 0.5)" fill-opacity="1">3</text><text fill="rgb(68,68,68)" stroke="none" font-family="helvetica" font-size="11px" font-style="normal" font-weight="normal" text-decoration="normal" x="855.5831460952759" y="273" text-anchor="start" dominant-baseline="alphabetic" transform="matrix(1, 0, 0, 1, 0.5, 0.5)" fill-opacity="1">4</text><text fill="rgb(68,68,68)" stroke="none" font-family="helvetica" font-size="13px" font-style="italic" font-weight="normal" text-decoration="normal" x="512.75" y="294" text-anchor="start" dominant-baseline="alphabetic" transform="matrix(1, 0, 0, 1, 0.5, 0.5)" fill-opacity="1">x</text><path fill="none" stroke="rgb(0,0,0)" paint-order="fill" d="M 62.5 254.5 L 62.5 28.5" stroke-opacity="1" stroke-linejoin="bevel" stroke-miterlimit="10" stroke-dasharray=""/><path fill="none" stroke="rgb(0,0,0)" paint-order="fill" d="M 56.5 254.5 L 64.5 254.5 M 56.5 220.5 L 64.5 220.5 M 56.5 185.5 L 64.5 185.5 M 56.5 151.5 L 64.5 151.5 M 56.5 116.5 L 64.5 116.5 M 56.5 82.5 L 64.5 82.5 M 56.5 47.5 L 64.5 47.5" stroke-opacity="1" stroke-linejoin="bevel" stroke-miterlimit="10" stroke-dasharray=""/><path fill="none" stroke="rgb(0,0,0)" paint-order="fill" d="M 58.5 254.5 L 62.5 254.5 M 58.5 247.5 L 62.5 247.5 M 58.5 240.5 L 62.5 240.5 M 58.5 233.5 L 62.5 233.5 M 58.5 226.5 L 62.5 226.5 M 58.5 220.5 L 62.5 220.5 M 58.5 213.5 L 62.5 213.5 M 58.5 206.5 L 62.5 206.5 M 58.5 199.5 L 62.5 199.5 M 58.5 192.5 L 62.5 192.5 M 58.5 185.5 L 62.5 185.5 M 58.5 178.5 L 62.5 178.5 M 58.5 171.5 L 62.5 171.5 M 58.5 165.5 L 62.5 165.5 M 58.5 158.5 L 62.5 158.5 M 58.5 151.5 L 62.5 151.5 M 58.5 144.5 L 62.5 144.5 M 58.5 137.5 L 62.5 137.5 M 58.5 130.5 L 62.5 130.5 M 58.5 123.5 L 62.5 123.5 M 58.5 116.5 L 62.5 116.5 M 58.5 109.5 L 62.5 109.5 M 58.5 103.5 L 62.5 103.5 M 58.5 96.5 L 62.5 96.5 M 58.5 89.5 L 62.5 89.5 M 58.5 82.5 L 62.5 82.5 M 58.5 75.5 L 62.5 75.5 M 58.5 68.5 L 62.5 68.5 M 58.5 61.5 L 62.5 61.5 M 58.5 54.5 L 62.5 54.5 M 58.5 47.5 L 62.5 47.5 M 58.5 41.5 L 62.5 41.5 M 58.5 34.5 L 62.5 34.5" stroke-opacity="1" stroke-linejoin="bevel" stroke-miterlimit="10" stroke-dasharray=""/><text fill="rgb(68,68,68)" stroke="none" font-family="helvetica" font-size="11px" font-style="normal" font-weight="normal" text-decoration="normal" x="44.88333320617676" y="258" text-anchor="start" dominant-baseline="alphabetic" transform="matrix(1, 0, 0, 1, 0.5, 0.5)" fill-opacity="1">0</text><text fill="rgb(68,68,68)" stroke="none" font-family="helvetica" font-size="11px" font-style="normal" font-weight="normal" text-decoration="normal" x="32.64999961853027" y="223.5805206298828" text-anchor="start" dominant-baseline="alphabetic" transform="matrix(1, 0, 0, 1, 0.5, 0.5)" fill-opacity="1">500</text><text fill="rgb(68,68,68)" stroke="none" font-family="helvetica" font-size="11px" font-style="normal" font-weight="normal" text-decoration="normal" x="26.53333282470703" y="189.16104125976562" text-anchor="start" dominant-baseline="alphabetic" transform="matrix(1, 0, 0, 1, 0.5, 0.5)" fill-opacity="1">1000</text><text fill="rgb(68,68,68)" stroke="none" font-family="helvetica" font-size="11px" font-style="normal" font-weight="normal" text-decoration="normal" x="26.53333282470703" y="154.7415771484375" text-anchor="start" dominant-baseline="alphabetic" transform="matrix(1, 0, 0, 1, 0.5, 0.5)" fill-opacity="1">1500</text><text fill="rgb(68,68,68)" stroke="none" font-family="helvetica" font-size="11px" font-style="normal" font-weight="normal" text-decoration="normal" x="26.53333282470703" y="120.32209777832031" text-anchor="start" dominant-baseline="alphabetic" transform="matrix(1, 0, 0, 1, 0.5, 0.5)" fill-opacity="1">2000</text><text fill="rgb(68,68,68)" stroke="none" font-family="helvetica" font-size="11px" font-style="normal" font-weight="normal" text-decoration="normal" x="26.53333282470703" y="85.90261840820312" text-anchor="start" dominant-baseline="alphabetic" transform="matrix(1, 0, 0, 1, 0.5, 0.5)" fill-opacity="1">2500</text><text fill="rgb(68,68,68)" stroke="none" font-family="helvetica" font-size="11px" font-style="normal" font-weight="normal" text-decoration="normal" x="26.53333282470703" y="51.4831428527832" text-anchor="start" dominant-baseline="alphabetic" transform="matrix(1, 0, 0, 1, 0.5, 0.5)" fill-opacity="1">3000</text><text fill="rgb(68,68,68)" stroke="none" font-family="helvetica" font-size="13px" font-style="italic" font-weight="normal" text-decoration="normal" x="-11.708333969116211" y="138" text-anchor="start" dominant-baseline="alphabetic" transform="matrix(6.123233995736766e-17, -1, 1, 6.123233995736766e-17, -121.96666717529297, 160.03333282470703)" fill-opacity="1">Frequency</text><path fill="none" stroke="none"/><text fill="rgb(68,68,68)" stroke="none" font-family="helvetica" font-size="13px" font-style="normal" font-weight="bold" text-decoration="normal" x="0" y="0" text-anchor="start" dominant-baseline="text-after-edge" transform="matrix(1, 0, 0, 1, 62.5, 23.5)" fill-opacity="1">Average hits for pixel (107 to 108, 145 to 148)  being triggered per FEL burst</text></svg>